<svg xmlns="http://www.w3.org/2000/svg" viewBox="0 0 225 200.02"><defs><style>.cls-1,.cls-12{fill:#c6ff00}.cls-11,.cls-13,.cls-6{fill:#fff}.cls-11{isolation:isolate}.cls-3,.cls-8{fill:none}.cls-12,.cls-13,.cls-3,.cls-8{stroke:#263238}.cls-3{stroke-miterlimit:10}.cls-12,.cls-13,.cls-3,.cls-8{stroke-width:1.11px}.cls-4{fill:#263238}.cls-12,.cls-13,.cls-8{stroke-linecap:round;stroke-linejoin:round}.cls-11{opacity:.5}</style></defs><g id="Layer_2" data-name="Layer 2"><g id="Layer_1-2" data-name="Layer 1"><g id="Layer_1-2-2" data-name="Layer 1-2"><path class="cls-1" d="M.07 107s1.22 38 33 63.3 75.78 27.13 111.41 29.54 63-17.74 67.13-48.18-23.11-39.37-37.87-74-13.46-46-44.71-67.35S48.85 2 23.21 38.52.07 107 .07 107z"/><path d="M.07 107s1.22 38 33 63.3 75.78 27.13 111.41 29.54 63-17.74 67.13-48.18-23.11-39.37-37.87-74-13.46-46-44.71-67.35S48.85 2 23.21 38.52.07 107 .07 107z" style="isolation:isolate" opacity=".7" fill="#fff"/><path class="cls-3" d="M14.52 168.28H9.71m199.5 0H22.12"/><path class="cls-4" d="M138.82 188.34c8.78 0 15.91-2 15.91-4.37s-7.13-4.37-15.91-4.37-15.91 2-15.91 4.37 7.09 4.37 15.91 4.37z"/><path d="M56.59 193.89c-16.56 0-19-2.39-19.24-4.31a2.46 2.46 0 01.11-1.2 2.8 2.8 0 01.64-1c4.46-4.67 30.17-2.69 65.74 0 5 .38 10.1.78 15.36 1.17 35.94 2.66 50.41 2.32 53.4-1.28a3 3 0 00.4-2.91c-1.42-5.2-20.46-5.23-27.67-4.82a.53.53 0 01-.25 0 .43.43 0 01-.22-.12.49.49 0 01-.16-.19.55.55 0 01-.07-.25.53.53 0 010-.25.71.71 0 01.13-.22.6.6 0 01.21-.14h.25c2.76-.16 27-1.38 28.94 5.75a4.22 4.22 0 01-.63 4c-3.37 4.07-17.1 4.5-54.46 1.73l-15.35-1.16C69.85 186 43.07 184 39 188.24a1.36 1.36 0 00-.35.54 1.31 1.31 0 00-.07.65c.16 1.24 3.15 4 27.23 3 13.47-.53 27-2 27.14-2a.57.57 0 01.26 0 1 1 0 01.23.11 1.54 1.54 0 01.17.19.73.73 0 01.07.24 1.13 1.13 0 010 .26.8.8 0 01-.13.22.55.55 0 01-.2.15.57.57 0 01-.25.06c-.13 0-13.7 1.49-27.22 2-3.51.18-6.59.23-9.29.23z" stroke-width="1.11" stroke-miterlimit="10" stroke="#263238" fill="#fff"/><path class="cls-6" d="M137.15 187.32a18.72 18.72 0 10-22.51-14 18.72 18.72 0 0022.51 14z"/><path class="cls-1" d="M132.9 187.81a18.73 18.73 0 0015.49-29.27c-.21 8.15-4.71 20.19-28.16 24.33a18.63 18.63 0 0012.67 4.94z"/><path d="M132.9 187.81a18.73 18.73 0 0015.49-29.27c-.21 8.15-4.71 20.19-28.16 24.33a18.63 18.63 0 0012.67 4.94z" style="isolation:isolate" opacity=".3" fill="#fff"/><path class="cls-8" d="M142.13 176.43a30 30 0 00-11.86-7.06 30 30 0 0111.86 7.06h1a35.09 35.09 0 005.65-7.35c-8.79-9.26-17.36-8.31-17.36-8.31s8.56-1 17.35 8.32c.48-.86.88-1.67 1.21-2.42-3.63-5.11-9.94-8.58-13.32-9.11l-.78-.18a11 11 0 00-3.67 0 11 11 0 013.67 0l2.23-6.27a18.79 18.79 0 00-3.23-.62c-1.45 2.33-5.18 9.79-5.18 24.6 0-14.81 3.73-22.27 5.18-24.6a19.1 19.1 0 00-4 0 43.67 43.67 0 00-6.72 23 54.6 54.6 0 0017.97 2.94zm4.23-3.81a26.44 26.44 0 00-15.71-7.62 26.46 26.46 0 0115.71 7.65z"/><path class="cls-8" d="M124.14 173.57c.29-11.83 4.51-19.7 6.72-23a18.79 18.79 0 00-5 1.29 37.16 37.16 0 00-6.46 19.65 33.2 33.2 0 004.77 2.1z"/><path class="cls-8" d="M125.83 151.82a18.72 18.72 0 00-11.58 16.06 24.06 24.06 0 005.12 3.59 37.16 37.16 0 016.46-19.65zM150 166.67a22.54 22.54 0 001.05-2.77 18.94 18.94 0 00-4-7.2l-1.43 4.83 1.43-4.83a19.82 19.82 0 00-4-3.36l-1.59 6 1.59-6a19.48 19.48 0 00-5-2.22l-2.24 6.27c3.46.52 8.78 2.53 14.19 9.28z"/><path class="cls-8" d="M151.75 170v-.82a19.11 19.11 0 00-.76-5.26 22.29 22.29 0 01-1 2.77 10.21 10.21 0 01-.74 1.61 5.7 5.7 0 00-.41.82 7.45 7.45 0 01-.53.91 67.52 67.52 0 01-4.94 6.45c-.06 0-2 1.78-3.11 2.68a50 50 0 01-6.22 4.41 64.76 64.76 0 01-6.64 3.51 19.09 19.09 0 005.62.85h1c3.7-2.1 9.81-6.88 17.73-17.93z"/><path class="cls-8" d="M151.75 170c-7.92 11.07-14 15.85-17.8 17.91a18.76 18.76 0 0017.8-17.91zm-33.43 10.85a18.81 18.81 0 009 6.2 65.81 65.81 0 006.64-3.51c-4.46.83-11.45-1.22-15.64-2.69z"/><path class="cls-8" d="M134 183.54a50 50 0 006.22-4.41c-13.5 1.38-21.83-2.79-25.37-5.17a18.82 18.82 0 003.5 6.89c4.16 1.47 11.15 3.52 15.65 2.69z"/><path class="cls-8" d="M140.19 179.13c1.08-.9 2.05-1.8 2.93-2.68h-1l.21.21-.21-.21a55.59 55.59 0 01-18-2.87c-6.43-2.22-8.75-4.62-9.89-5.68v1.28a18.85 18.85 0 00.62 4.79c3.51 2.37 11.85 6.54 25.34 5.16z"/><path class="cls-8" d="M137.15 187.32a18.72 18.72 0 10-22.51-14 18.72 18.72 0 0022.51 14z"/><path class="cls-1" d="M167.43 137.11s-1.28-4.18-5-5.66c-2.61-1-5.59-.76-8.28-.29-5 .87-9.39 2.86-14.14 4.56 0 0 2-.74 10.37 3.31a22.28 22.28 0 0010.08 2.57c2.79-.06 7.11-.86 6.97-4.49zm.46-12.21s0-4.35-3.18-6.86c-2.18-1.74-5.12-2.34-7.85-2.67-5.06-.61-9.82 0-14.87.29 0 0 2.16-.13 9 6.15a22.48 22.48 0 008.9 5.37c2.71.74 7.11 1.22 8-2.28zm8.61 16.15s-3.4-2.73-3.41-6.75c0-2.79 1.35-5.46 2.77-7.79 2.66-4.33 6.13-7.66 9.47-11.45 0 0-1.44 1.61-.74 10.83a22.53 22.53 0 01-1.33 10.32c-1.1 2.59-3.43 6.3-6.76 4.84zm12.04 6.68s-.48-4.33 2.36-7.18c2-2 4.82-2.92 7.47-3.56 4.95-1.19 9.76-1.1 14.8-1.43 0 0-2.15.12-8.18 7.15a22.48 22.48 0 01-8.23 6.36c-2.62 1.06-6.9 2.04-8.22-1.34z"/><path class="cls-1" d="M187.75 132.31s-4.32-.59-6.4-4c-1.44-2.4-1.65-5.39-1.63-8.12.06-5.08 1.32-9.71 2.23-14.67 0 0-.4 2.12 4.94 9.68a22.92 22.92 0 014.19 9.52c.37 2.76.28 7.14-3.33 7.59zm12.42-7.74s3.11 3 7.11 2.61c2.78-.31 5.29-2 7.43-3.65 4-3.14 6.91-7 10.29-10.72 0 0-1.43 1.61-10.69 2a22.33 22.33 0 00-10.1 2.51c-2.45 1.37-5.88 4.13-4.04 7.25z"/><path class="cls-1" d="M196.58 121.56s4.34.43 7.16-2.43c2-2 2.88-4.85 3.5-7.51 1.14-5 1-9.75 1.27-14.78 0 0-.1 2.15-7.07 8.25a22.31 22.31 0 00-6.28 8.28c-1.04 2.63-1.97 6.9 1.42 8.19z"/><path class="cls-8" d="M181.09 163.69l-7.48-18.39L165 124m17.82 36.53l7.49-25.53 8.06-15.8m-12.67 31.27l7.49-4.31M190.31 135l-3.74-8.34m8.43 0l9.14-4.06m-29.09 26.14l3.17-12.64m-7.37 3.03l-7.32-3.89"/><path d="M184.94 172.89h-6.24a4.4 4.4 0 01-2.8-1 4.32 4.32 0 01-1.51-2.55l-2.22-11.67h19.29l-2.22 11.67a4.38 4.38 0 01-4.3 3.56z" stroke-linejoin="round" stroke-linecap="round" fill="#263238" stroke-width="1.11" stroke="#263238"/><path class="cls-4" d="M9.28 101.73c0-1.45.67-2.51 2.18-2.51s2.2 1 2.2 2.51v5.08c0 1.45-.67 2.51-2.2 2.51s-2.18-1-2.18-2.51zm.66 5.13c0 1.07.43 1.87 1.53 1.87S13 108 13 106.86v-5.17c0-1.08-.44-1.88-1.57-1.88s-1.53.8-1.53 1.88zm4.76-5.13c0-1.45.67-2.51 2.18-2.51s2.2 1 2.2 2.51v5.08c0 1.45-.67 2.51-2.2 2.51s-2.18-1-2.18-2.51zm.65 5.13c0 1.07.43 1.87 1.53 1.87s1.57-.8 1.57-1.87v-5.17c0-1.08-.44-1.88-1.57-1.88s-1.53.8-1.53 1.88zm6.87-7.57c1.54 0 2.13 1 2.13 2.41v1.08c0 1.57-.72 2.36-2.3 2.36h-1.24v4.08h-.65v-9.93zm-.17 5.25c1.15 0 1.65-.52 1.65-1.72v-1.16c0-1.08-.37-1.77-1.48-1.77h-1.41v4.65zm7.48-2.84v.21h-.62v-.25c0-1-.4-1.85-1.48-1.85s-1.43.79-1.43 1.84c0 2.41 3.6 2.45 3.6 5.19 0 1.43-.63 2.48-2.15 2.48s-2.15-1-2.15-2.48v-.52h.63v.55c0 1 .41 1.83 1.51 1.83s1.5-.76 1.5-1.83c0-2.38-3.59-2.43-3.59-5.19 0-1.49.65-2.46 2.09-2.47s2.09 1.06 2.09 2.49zm1.64 6.3v1.23h-.64V108zm1.83 0v1.23h-.64V108zm1.73 0v1.23h-.64V108z"/><path d="M14.9 121.42a3 3 0 01-.14.9 2.26 2.26 0 01-1 1.23 1.47 1.47 0 01-.73.19H9.86V116H13a1.47 1.47 0 01.73.19 2.26 2.26 0 011 1.23 3 3 0 01.14.9 1.47 1.47 0 01-.14.88 2 2 0 01-.21.38 1.26 1.26 0 01-.27.29 1.2 1.2 0 01.27.28 2 2 0 01.21.38 3.36 3.36 0 01.14.45 3.22 3.22 0 01.03.44zm-3.77.77H13a.49.49 0 00.24 0 1.06 1.06 0 00.2-.17 1 1 0 00.14-.25 1.5 1.5 0 000-.3 1.5 1.5 0 000-.3 1.48 1.48 0 00-.14-.25.59.59 0 00-.2-.16.49.49 0 00-.24 0h-1.87zm0-3.09H13a.53.53 0 00.24-.06.74.74 0 00.2-.16 1.59 1.59 0 00.14-.26 1.61 1.61 0 000-.31 1.4 1.4 0 000-.29.86.86 0 00-.14-.25.79.79 0 00-.2-.17.53.53 0 00-.24-.06h-1.87zm8.44 1.55v-1.55a2 2 0 00-.1-.6 2.06 2.06 0 00-.27-.51 1.38 1.38 0 00-.41-.32 1 1 0 00-.48-.13 1.06 1.06 0 00-.5.13 1.38 1.38 0 00-.4.32 1.56 1.56 0 00-.27.51 1.71 1.71 0 00-.09.6v1.55zm1.26 3.1h-1.26v-1.59h-2.52v1.56h-1.26v-4.64a3.34 3.34 0 01.2-1.23 3.2 3.2 0 01.53-1 2.5 2.5 0 01.8-.66 2.09 2.09 0 012 0 2.61 2.61 0 01.8.66 3.2 3.2 0 01.54 1 3.82 3.82 0 01.2 1.23zm6.17-3.89a5.17 5.17 0 01-.11 1 5.66 5.66 0 01-.32.93 5.14 5.14 0 01-.49.78 3.28 3.28 0 01-.64.6 3 3 0 01-.75.4 2.74 2.74 0 01-.84.14H22V116h1.9a2.48 2.48 0 01.84.15 3.63 3.63 0 012.2 2.71 5.46 5.46 0 01.06 1zm-1.26 0a2.74 2.74 0 00-.15-.9 2.58 2.58 0 00-.4-.73 2 2 0 00-.6-.51 1.65 1.65 0 00-.74-.18h-.63v4.62h.63a1.51 1.51 0 00.74-.17 2.16 2.16 0 00.6-.5 2.78 2.78 0 00.4-.74 2.66 2.66 0 00.12-.89zm5.89-2.32v3.11h1.26a1.15 1.15 0 00.88-.46 1.58 1.58 0 00.23-.49 2 2 0 00.1-.6 1.92 1.92 0 00-.37-1.11 1.2 1.2 0 00-.4-.32 1 1 0 00-.48-.13zm0 6.21h-1.3V116h2.53a1.72 1.72 0 01.66.13 1.88 1.88 0 01.6.3 3.25 3.25 0 01.91 1.12 3.58 3.58 0 01.25.74 3.81 3.81 0 01.09.82 4 4 0 01-.08.78 3.28 3.28 0 01-.23.71 2.61 2.61 0 01-.37.63 2.91 2.91 0 01-.49.5l.7 2h-1.34l-.56-1.57h-1.4zm8.93 0h-4.35V116h4.32v1.55h-3.06v1.56h2.07v1.55h-2.07v1.49h3.06zm6 1.55h-1.41l-.76-1.4h-.22a2.57 2.57 0 01-.87-.15 3.55 3.55 0 01-1.95-1.85 4.48 4.48 0 01-.35-1 5.14 5.14 0 010-2.14 4.75 4.75 0 01.33-.94 4.07 4.07 0 01.52-.82 3.17 3.17 0 01.65-.62 3.42 3.42 0 01.78-.41 2.57 2.57 0 01.87-.15 2.84 2.84 0 01.85.18 3.24 3.24 0 01.78.41 3.83 3.83 0 011.22 1.47 5.08 5.08 0 01.33 1 5.47 5.47 0 01.11 1.07 4.34 4.34 0 01-1.07 3 3.18 3.18 0 01-.74.64zm-.41-5.4a3.07 3.07 0 00-.16-1 2.4 2.4 0 00-.43-.77 2.17 2.17 0 00-.63-.55 1.81 1.81 0 00-.78-.18 1.75 1.75 0 00-.78.18 2 2 0 00-.64.55 2.08 2.08 0 00-.43.77 3 3 0 000 1.92 2.32 2.32 0 00.43.77 1.89 1.89 0 00.64.53 1.54 1.54 0 00.78.2 1.62 1.62 0 00.85-.2 2.42 2.42 0 001-1.3 2.81 2.81 0 00.17-1zm7.06.75a3.91 3.91 0 01-.2 1.23 3.21 3.21 0 01-.54 1 2.69 2.69 0 01-.81.67 2 2 0 01-1 .24 2.05 2.05 0 01-1-.24 2.87 2.87 0 01-1.34-1.65 3.41 3.41 0 01-.2-1.23V116h1.26v4.66a1.44 1.44 0 00.1.59 1.42 1.42 0 00.27.5 1.3 1.3 0 00.4.34 1.17 1.17 0 00.49.11 1.09 1.09 0 00.49-.11 1.27 1.27 0 00.4-.34 1.42 1.42 0 00.27-.5 1.87 1.87 0 00.1-.59V116h1.27zm5.41 3.1h-4.3V116h4.32v1.55h-3.06v1.56h2.07v1.55h-2.07v1.49h3.06zm.44-5.44a2.64 2.64 0 01.15-.89 2.22 2.22 0 011-1.23A1.58 1.58 0 0161 116h2.89v1.55H61a.48.48 0 00-.24.06.91.91 0 00-.21.18.7.7 0 00-.13.24.76.76 0 000 .3.81.81 0 000 .31.59.59 0 00.34.41.48.48 0 00.24.06h1.26a1.66 1.66 0 01.74.19 2.12 2.12 0 011 1.23 2.81 2.81 0 010 1.81 2.4 2.4 0 01-.4.74 2.16 2.16 0 01-.6.5 1.53 1.53 0 01-.74.18h-2.8v-1.61h2.8a.53.53 0 00.25 0 .79.79 0 00.2-.17.66.66 0 00.13-.25.71.71 0 000-.29.72.72 0 00-.63-.78H61a1.46 1.46 0 01-.73-.18 2.25 2.25 0 01-1-1.23 2.52 2.52 0 01-.19-1zm8.43 5.44h-1.24v-6.21h-1.89V116h5v1.55h-1.85z" fill="#32383a"/><path class="cls-6" d="M99.59 148.29c-11.66 0-18.66-10.32-21.15-19.4l-.08-.32a3.48 3.48 0 01.29-2.66 3.55 3.55 0 012.13-1.6 3.38 3.38 0 012.65.39 3.7 3.7 0 011 .93 3.59 3.59 0 01.55 1.25l.07.23c1.89 6.91 7 14.81 15.29 14.36a11.22 11.22 0 004.47-1.12 11 11 0 003.63-2.83c4.53-5.18 6.56-16.46 6.1-22.14a2.76 2.76 0 015.51-.44c.53 6.33-.16 19.94-6.4 27.07a17.84 17.84 0 01-12.88 6.27z"/><path class="cls-1" d="M117.06 112.4a2.83 2.83 0 00-2.52 3 38.43 38.43 0 01-1.11 11 12.48 12.48 0 014.07.52 21.51 21.51 0 01-4 10.91 19.76 19.76 0 01-18.64 8.46 25.93 25.93 0 01-8.25-3.29 18.62 18.62 0 0013 5.28h1.13A17.86 17.86 0 00113.6 142c6.24-7.17 6.91-20.76 6.4-27.09a2.71 2.71 0 00-1-1.83 2.75 2.75 0 00-.93-.52 2.92 2.92 0 00-1.06-.13z"/><path class="cls-11" d="M117.06 112.4a2.83 2.83 0 00-2.52 3 38.43 38.43 0 01-1.11 11 12.48 12.48 0 014.07.52 21.51 21.51 0 01-4 10.91 19.76 19.76 0 01-18.64 8.46 25.93 25.93 0 01-8.25-3.29 18.62 18.62 0 0013 5.28h1.13A17.86 17.86 0 00113.6 142c6.24-7.17 6.91-20.76 6.4-27.09a2.71 2.71 0 00-1-1.83 2.75 2.75 0 00-.93-.52 2.92 2.92 0 00-1.06-.13z"/><path class="cls-8" d="M99.59 148.29c-11.66 0-18.66-10.32-21.15-19.4l-.08-.32a3.48 3.48 0 01.29-2.66 3.55 3.55 0 012.13-1.6 3.38 3.38 0 012.65.39 3.7 3.7 0 011 .93 3.59 3.59 0 01.55 1.25l.07.23c1.89 6.91 7 14.81 15.29 14.36a11.22 11.22 0 004.47-1.12 11 11 0 003.63-2.83c4.53-5.18 6.56-16.46 6.1-22.14a2.76 2.76 0 015.51-.44c.53 6.33-.16 19.94-6.4 27.07a17.84 17.84 0 01-12.88 6.27z"/><path class="cls-12" d="M92.87 141.22c.27-1.28-2.8.72-5.37 2.59a19.92 19.92 0 003.06 2.19 19.41 19.41 0 002.31-4.78zm6.72 7.07h1.13a19.55 19.55 0 003.31-.47c-1.44-1.88-3.43-4.36-4-4.55s-1.91 3-2.62 4.92a17.58 17.58 0 002.18.1zm-14.54-21.21l-.07-.23a3.43 3.43 0 00-6.34-1 3.24 3.24 0 00-.41 1.31 3.18 3.18 0 00.13 1.37l.08.32a33.32 33.32 0 004 9l6.24-3a25.53 25.53 0 01-3.61-7.85zM113.61 142a17.39 17.39 0 001.33-1.74c-2-.68-4.94-1.61-6-1.5-1.31.11.47 4.29 1.38 6.27a19.36 19.36 0 003.33-3zm.1-11.18c-.21.41 2.35 2.28 4.08 3.47a38.7 38.7 0 001.32-5c-2.11.44-5.19 1.11-5.4 1.53zm6.29-7.74c.11-1.49.17-2.91.18-4.22-1.81 1-3.94 2.36-3.94 3.26s1.96 1.01 3.76.96z"/><path class="cls-6" d="M91.77 82.64s-5.09 14.7-2.35 26.14A22.34 22.34 0 00102.19 124s-7.43 2.61-5.76 6.63 8.08 1.43 10.16.13a14 14 0 005.08-7.81 19.14 19.14 0 00.27-4s8.48-.9 14.24-5.58c0 0 5.08 4 8.73 3.25s8.86-7.28 8.34-13.14-3.92-5.85-6-4.94a8.51 8.51 0 00-2.86 1.82s3-3.65 0-8.71a11.45 11.45 0 00-8.34-5.47s-1.57-8.32-6.25-11.44-21.37-6.4-28.03 7.9z"/><path class="cls-1" d="M130.48 87.7a29.56 29.56 0 01-23 14.23c-10.36.9-16.18-1.14-18.85-2.55a66.7 66.7 0 013.12-16.73c6.65-14.31 23.31-11.06 28-7.93S126 86.17 126 86.17a11.4 11.4 0 014.45 1.53zm6.76 10.81a8.55 8.55 0 00-2.87 1.82 6.83 6.83 0 001.22-2.94c-7 3.49-6.49 11-7.37 11-1.07 0-1.61-3.76-1.61-3.76s-1.34 5.38-9.43 9.14-17.18.81-17.18.81 1.88 4.29-3 3.75a7.68 7.68 0 01-3.78-1.33 22.42 22.42 0 009 7s-7.42 2.61-5.76 6.63 8.08 1.43 10.17.13a14 14 0 005.08-7.81 19.13 19.13 0 00.26-4s8.47-.91 14.23-5.59c0 0 5.08 4 8.73 3.25s8.86-7.28 8.34-13.14-3.93-5.85-6-4.94z"/><path class="cls-11" d="M130.48 87.7a29.56 29.56 0 01-23 14.23c-10.36.9-16.18-1.14-18.85-2.55a66.7 66.7 0 013.12-16.73c6.65-14.31 23.31-11.06 28-7.93S126 86.17 126 86.17a11.4 11.4 0 014.45 1.53zm6.76 10.81a8.55 8.55 0 00-2.87 1.82 6.83 6.83 0 001.22-2.94c-7 3.49-6.49 11-7.37 11-1.07 0-1.61-3.76-1.61-3.76s-1.34 5.38-9.43 9.14-17.18.81-17.18.81 1.88 4.29-3 3.75a7.68 7.68 0 01-3.78-1.33 22.42 22.42 0 009 7s-7.42 2.61-5.76 6.63 8.08 1.43 10.17.13a14 14 0 005.08-7.81 19.13 19.13 0 00.26-4s8.47-.91 14.23-5.59c0 0 5.08 4 8.73 3.25s8.86-7.28 8.34-13.14-3.93-5.85-6-4.94z"/><path class="cls-8" d="M112 119a18.33 18.33 0 01-14.74-6.75m-5.49-29.61s-5.09 14.7-2.35 26.14A22.34 22.34 0 00102.19 124s-7.43 2.61-5.76 6.63 8.08 1.43 10.16.13a14 14 0 005.08-7.81 19.14 19.14 0 00.27-4s8.48-.9 14.24-5.58c0 0 5.08 4 8.73 3.25s8.86-7.28 8.34-13.14-3.92-5.85-6-4.94a8.51 8.51 0 00-2.86 1.82s3-3.65 0-8.71a11.45 11.45 0 00-8.34-5.47s-1.57-8.32-6.25-11.44-21.37-6.4-28.03 7.9zm42.6 17.69s-2.74 1.82-4 7.42"/><path class="cls-13" d="M139.39 102.72a1.48 1.48 0 11-.78-2.18 1.65 1.65 0 01.78 2.18z"/><path class="cls-13" d="M142.09 104.42a1.48 1.48 0 11-.78-2.19 1.66 1.66 0 01.78 2.19zm.57 2.58a1 1 0 01-.43.41 1.11 1.11 0 01-.59.11 1 1 0 01-.56-.22 1 1 0 01-.36-.48 1.22 1.22 0 010-.6 1.2 1.2 0 01.29-.53 1.12 1.12 0 01.52-.29 1.22 1.22 0 01.6 0 1.27 1.27 0 01.6.67 1.17 1.17 0 010 .9zm-3.44 3.43c-.94 1.7-2.82 2.45-4.21 1.69s-1.74-2.76-.8-4.46 2.83-2.45 4.19-1.69a3.27 3.27 0 01.82 4.46z"/><path class="cls-8" d="M102.19 124a7.85 7.85 0 005.6.38m-11.34 6.27s.53-2.21 3.78-3.77m-.51 5.71a11.2 11.2 0 013.51-4.55"/><path class="cls-4" d="M48.33 96.61a4.48 4.48 0 01-1.68-3.7v-12.4h-32a5.35 5.35 0 01-4.19-1.74 5.77 5.77 0 01-1.6-4.09 6.24 6.24 0 011-3.48l30.72-48.12q3.44-5.32 9.16-5.33a8.3 8.3 0 015.61 2 7.39 7.39 0 012.24 5.84v46.73h8.15a4.06 4.06 0 011.65.27 3.94 3.94 0 011.38.94 4.45 4.45 0 010 5.78 3.94 3.94 0 01-1.38.94 3.74 3.74 0 01-1.65.26h-8.19v12.4a4.72 4.72 0 01-.38 2 4.56 4.56 0 01-1.25 1.66A5.73 5.73 0 0152.16 98a6 6 0 01-3.83-1.34zm-1.68-24.29V29.25L19.8 72.32zm46.12 24.54a22.17 22.17 0 01-8.12-6.06 31.1 31.1 0 01-5.11-9.22 54.26 54.26 0 01-2.78-11.16A90.08 90.08 0 0176 57.91q0-41.32 28.25-41.33t28.19 41.33a95.88 95.88 0 01-.75 12.45 52.23 52.23 0 01-2.77 11.16 31.48 31.48 0 01-5.11 9.23 22.52 22.52 0 01-8.1 6.08 29.79 29.79 0 01-22.93 0zm17-7.91a13.24 13.24 0 004.23-2.86 16.57 16.57 0 003-4.4 30.53 30.53 0 002-5.33 46.25 46.25 0 001.16-6.08c.28-2.26.46-4.33.56-6.23s.13-3.94.14-6.14 0-4.45-.14-6.42-.29-4.08-.59-6.34a50.05 50.05 0 00-1.13-6.08 31.92 31.92 0 00-2-5.27 16.8 16.8 0 00-3-4.32 12.92 12.92 0 00-4.19-2.77 15.35 15.35 0 00-11.12 0 12.5 12.5 0 00-4.16 2.74 17 17 0 00-3 4.29 27.18 27.18 0 00-2 5.28 48.72 48.72 0 00-1.15 6.11c-.3 2.27-.5 4.4-.59 6.36s-.14 4.11-.14 6.42 0 4.27.14 6.17.28 4 .56 6.27a43.3 43.3 0 001.15 6.09 30.43 30.43 0 002 5.32 16.19 16.19 0 002.94 4.38A12.75 12.75 0 0098.63 89a14.82 14.82 0 0011.18 0zm49.65 7.91a22 22 0 01-8.11-6.06 31 31 0 01-5.12-9.22 54.26 54.26 0 01-2.78-11.16 93.29 93.29 0 01-.78-12.51q0-41.31 28.27-41.33t28.2 41.33a95.88 95.88 0 01-.76 12.45 52.23 52.23 0 01-2.77 11.16 31.48 31.48 0 01-5.11 9.23 22.5 22.5 0 01-8.12 6.08 29.76 29.76 0 01-22.92 0zM176.47 89a13.07 13.07 0 004.19-2.86 16.57 16.57 0 003-4.4 30.53 30.53 0 002-5.33 46.25 46.25 0 001.16-6.08c.27-2.26.46-4.33.56-6.23s.14-3.94.14-6.14-.05-4.45-.14-6.42-.3-4.08-.6-6.34a48.31 48.31 0 00-1.17-6.08 30.23 30.23 0 00-2-5.27 16.32 16.32 0 00-3-4.32 12.92 12.92 0 00-4.19-2.77 15.35 15.35 0 00-11.12 0 12.5 12.5 0 00-4.16 2.74 17 17 0 00-3 4.29 27.18 27.18 0 00-2 5.28 48.23 48.23 0 00-1.14 6.06c-.3 2.27-.5 4.4-.59 6.36s-.14 4.11-.14 6.42 0 4.27.14 6.17.28 4 .56 6.27a43.3 43.3 0 001.15 6.09 30.43 30.43 0 002 5.32 16.19 16.19 0 002.94 4.38 12.91 12.91 0 004.23 2.86 14.84 14.84 0 0011.19 0z"/><path class="cls-6" d="M81.21 75.25s-5.47 7.67-6.28 15.47.13 13 2.48 15a3.84 3.84 0 005.43.06 3.94 3.94 0 00.57-.71c1.28-1.83-.78-8.19-.78-8.19a43.59 43.59 0 015.6-10.41c3.39-4.29 4-4.94 4-4.94s-5.81-6.69-11.02-6.28z"/><path class="cls-1" d="M81.21 75.25A42.76 42.76 0 0078 80.76a20.55 20.55 0 019.25 7 13.87 13.87 0 011-1.32c3.39-4.3 4-5 4-5s-5.83-6.6-11.04-6.19z"/><path class="cls-11" d="M81.21 75.25A42.76 42.76 0 0078 80.76a20.55 20.55 0 019.25 7 13.87 13.87 0 011-1.32c3.39-4.3 4-5 4-5s-5.83-6.6-11.04-6.19z"/><path class="cls-8" d="M81.21 75.25s-5.47 7.67-6.28 15.47.13 13 2.48 15a3.84 3.84 0 005.43.06 3.94 3.94 0 00.57-.71c1.28-1.83-.78-8.19-.78-8.19a43.59 43.59 0 015.6-10.41c3.39-4.29 4-4.94 4-4.94s-5.81-6.69-11.02-6.28zm-3.78 30.42a14.74 14.74 0 01-.91-5.34m4.48 6.11a13.55 13.55 0 01-1.43-6"/><path class="cls-12" d="M82.9 89.14c0-1.37-2.61-4-6.25-5.22a30.28 30.28 0 00-1.21 3.9 16.31 16.31 0 014.08 1.3c1.96 1.07 3.38 1.59 3.38.02zM80.89 75.7a43.06 43.06 0 00-2.3 4 13.2 13.2 0 013.14 1.3c4 2.35 4.82 2.62 3.52-.78a9.3 9.3 0 00-4.36-4.52z"/><path class="cls-6" d="M124.08 71.44s6.2 7.1 7.75 14.79 1.14 13-1 15.13a3.84 3.84 0 01-5.41.55 3.41 3.41 0 01-.59-.61c-1.48-1.68 0-8.23 0-8.23a43.88 43.88 0 00-6.61-9.81c-3.79-3.93-4.5-4.52-4.5-4.52s5.13-7.15 10.36-7.3z"/><path class="cls-1" d="M124.08 71.44c-5.23.12-10.41 7.32-10.41 7.32s.72.58 4.51 4.53a26.26 26.26 0 012 2.34 22.08 22.08 0 018.2-8 43.85 43.85 0 00-4.3-6.19z"/><path class="cls-11" d="M124.08 71.44c-5.23.12-10.41 7.32-10.41 7.32s.72.58 4.51 4.53a26.26 26.26 0 012 2.34 22.08 22.08 0 018.2-8 43.85 43.85 0 00-4.3-6.19z"/><path class="cls-8" d="M124.08 71.44s6.2 7.1 7.75 14.79 1.14 13-1 15.13a3.84 3.84 0 01-5.41.55 3.41 3.41 0 01-.59-.61c-1.48-1.68 0-8.23 0-8.23a43.88 43.88 0 00-6.61-9.81c-3.79-3.93-4.5-4.52-4.5-4.52s5.13-7.15 10.36-7.3zm6.74 29.94a14.66 14.66 0 00.38-5.4m-3.81 6.5a13.59 13.59 0 00.84-6.09"/><path class="cls-12" d="M123.75 85.46c-.14-1.37 2.2-4.29 5.72-5.8a33.06 33.06 0 011.53 3.77 15.09 15.09 0 00-3.93 1.7c-1.79 1.22-3.17 1.87-3.32.33zm.68-13.58a44.16 44.16 0 012.69 3.7 12.94 12.94 0 00-3 1.61c-3.79 2.72-4.54 3.06-3.58-.43a9.25 9.25 0 013.89-4.88z"/><path class="cls-6" d="M80.7 68.59s-1.61 5.43-1 7.65 3.43.2 6.25 2.61 5.44 6.76 16.12 7.57 17.13-5 19.37-8.17 2-7 5.84-7.24.61-7.65-.6-8.86c0 0 7.46-11.06 7.46-13.88s-7.06-2.21-15.71.4c0 0-6.45-3.42-18.14-1.41S85.18 52.7 85.18 52.7s-14.52 1.81-15.52 3.62 1.97 9.46 11.04 12.27z"/><path class="cls-1" d="M127.26 71c3.83-.21.6-7.65-.61-8.86 0 0 1.42-2.09 3-4.7-4.34-2.26-8.59-3.52-9.72-2.25-2.43 2.74-1.1 8 0 13.07s-3.32 7.29-6.42 11.71-7.53-.44-7.53-.44c-1.57 6.41-8.18 2.21-8.18 2.21-5.1-1.57-13.73-6.63-12-10.17s2.21-6.85-.89-9.72-15.45-5.26-15.45-5.26c-.65 2.18 2.48 9.32 11.18 12 0 0-1.61 5.43-1 7.65s3.43.2 6.25 2.61 5.44 6.74 16.11 7.55 17.13-5 19.37-8.17 2.06-7.02 5.89-7.23z"/><path class="cls-11" d="M127.26 71c3.83-.21.6-7.65-.61-8.86 0 0 1.42-2.09 3-4.7-4.34-2.26-8.59-3.52-9.72-2.25-2.43 2.74-1.1 8 0 13.07s-3.32 7.29-6.42 11.71-7.53-.44-7.53-.44c-1.57 6.41-8.18 2.21-8.18 2.21-5.1-1.57-13.73-6.63-12-10.17s2.21-6.85-.89-9.72-15.45-5.26-15.45-5.26c-.65 2.18 2.48 9.32 11.18 12 0 0-1.61 5.43-1 7.65s3.43.2 6.25 2.61 5.44 6.74 16.11 7.55 17.13-5 19.37-8.17 2.06-7.02 5.89-7.23z"/><path class="cls-1" d="M111.52 72.23c.14 1.27-2.69 2.64-6.33 3.06s-6.72-.26-6.87-1.53 2.69-2.65 6.33-3.08 6.7.32 6.87 1.55z"/><path class="cls-11" d="M111.52 72.23c.14 1.27-2.69 2.64-6.33 3.06s-6.72-.26-6.87-1.53 2.69-2.65 6.33-3.08 6.7.32 6.87 1.55z"/><path class="cls-3" d="M80.7 68.59s-1.61 5.43-1 7.65 3.43.2 6.25 2.61 5.44 6.76 16.12 7.57 17.13-5 19.37-8.17 2-7 5.84-7.24.61-7.65-.6-8.86c0 0 7.46-11.06 7.46-13.88s-7.06-2.21-15.71.4c0 0-6.45-3.42-18.14-1.41S85.18 52.7 85.18 52.7s-14.52 1.81-15.52 3.62 1.97 9.46 11.04 12.27z"/><path d="M122.38 52.47c-5.21 3.51-3.39 7-1 9 1.44 1.19 3.74 1 5.32.72 0 0 7.45-11.07 7.45-13.88a29.1 29.1 0 00-11.77 4.16zm-52.86 4.1c-.65 2.18 2.48 9.32 11.18 12 0 0 6.64-.65 4.42-6-2.06-4.93-12.52-6.17-15.6-6zm30.73-9.31l-2 .37c1 5.28 2.77 14.07 4.31 14.07s2.72-9.63 3.22-15a43 43 0 00-5.55.59zm-6.01 12.88c1.61-.94 1.37-8 1.11-11.85a47.59 47.59 0 00-4.88 1.52c.59 3.59 2.06 11.32 3.77 10.33zm15.51-3.25c1.64.58 2.55-5.3 3.08-9.83a32.34 32.34 0 00-5-.42c-.06 3.72.17 9.63 1.92 10.25z" stroke-width="1.11" stroke-miterlimit="10" stroke="#263238" fill="#c6ff00"/><path class="cls-12" d="M107.55 77.25a6.23 6.23 0 00-4.54.55.67.67 0 00-.15.14.63.63 0 00-.07.41.3.3 0 00.12.17l2.78 2.61a.42.42 0 00.18.11.41.41 0 00.22 0 .82.82 0 00.19-.09.59.59 0 00.13-.17l1.42-3.14a.54.54 0 000-.18.6.6 0 000-.19 1.58 1.58 0 00-.12-.15.38.38 0 00-.17-.08z"/><path class="cls-4" d="M101 72.88c.38 1 .23 2-.34 2.22s-1.35-.42-1.74-1.43-.23-2 .34-2.21 1.3.42 1.74 1.42zm7.53-.72c-.2 1 .12 2 .73 2.12s1.25-.65 1.45-1.71-.14-2-.73-2.12-1.25.66-1.45 1.71z"/><path class="cls-8" d="M106.43 81s-3.72 5-7.11 0m6.39.13s2.47 2.55 5.08 1.13a2.4 2.4 0 001.27-3.17 2.34 2.34 0 00-.27-.49"/><path d="M94.37 68.85s.91-3.25 5.24-2.46m7.79-.53a5.11 5.11 0 016.25 1.14" stroke-width="3.34" stroke-linejoin="round" stroke-linecap="round" stroke="#263238" fill="none"/><path d="M91.89 77.57l3.14.78m-.4 1.17l-2.74.48m3.27 1l-2 1M115 76.14l2.74-.65m-2.26 1.95h1.82m-1.43 1.3l2.47.65" stroke-linecap="round" stroke-width="1.11" stroke-miterlimit="10" stroke="#263238" fill="none"/></g></g></g></svg>