<svg version="1.1" id="Layer_1" xmlns="http://www.w3.org/2000/svg" x="0" y="0" viewBox="0 0 478.7 373.7" xml:space="preserve"><style>.st0{fill:#ebebeb}.st1{fill:#e0e0e0}.st3{fill:#fafafa}.st4{fill:#af2323}.st5{fill:#f2b130}.st6{fill:#b73434}.st7{fill:#af1c1c}.st8{fill:#263238}.st9{fill:#fff}.st10{fill:#407bff}.st11{fill:#d3b287}.st12{fill:none;stroke:#4a3e32;stroke-width:4;stroke-linecap:round;stroke-linejoin:round}.st13{fill:#654d43}.st14{fill:#f0ca99}.st16{fill:#faf1e5}.st17{fill:#4a3e32}.st18,.st19{fill:none;stroke:#4a3e32;stroke-width:2;stroke-linejoin:round}.st19{stroke-width:4}.st22,.st23{opacity:.4;enable-background:new}.st23{opacity:.2}</style><g id="Background_Complete"><path class="st0" d="M0 331.3h478.7v.3H0zm50.2 9.5h31.7v.3H50.2zm88.9-2.7h33v.3h-33zm-66.3 7.4h53.1v.3H72.8zm315.6.9h41.4v.3h-41.4zm-33.7-6.1h21.9v.3h-21.9zm-167.4 3.9H277v.3h-89.7z"/><path class="st1" d="M142.3 328.3h51.8v3.1h-51.8zm21-66l-14.1 66h38l-14.1-66c-.6-2.7-3.2-4.4-5.9-3.8-2 .4-3.5 1.9-3.9 3.8z"/><path d="M175.7 274.6h-15l-3.6 17h22.2zm4.3 19.9h-23.6l-1.8 8.6h27.2z" fill="#f5f5f5"/><path class="st1" d="M69.4 331.3h7.7l22.7-130.9h-7.7zm201.7 0h7.7l22.7-130.9h-7.7z"/><path class="st0" d="M69.4 206.8h254.7v47.6H69.4z"/><path class="st3" d="M97.1 252.2H70.6l14.7-43.3h26.4zm52.8 0h-26.5l14.7-43.3h26.4zm52.8 0h-26.4l14.6-43.3h26.4zm52.8 0h-26.4l14.6-43.3h26.4zm52.8 0h-26.4l14.6-43.3h26.4z"/><path class="st1" d="M122.5 331.3h-7.7L92.1 200.4h7.7zm201.6 0h-7.7l-22.6-130.9h7.7z"/><path class="st4" d="M360 327.3h68v4h-68z"/><path class="st5" d="M387.1 243l-18 84.3h49.8l-18-84.3c-1.6-7.4-12.2-7.4-13.8 0z"/><path class="st6" d="M403.8 256.9h-19.7l-4.7 22.3h29.2z"/><path class="st7" d="M409.4 283.1h-30.8l-2.5 11.3h35.7z"/><path class="st4" d="M174.3 364.6h26v1.5h-26z"/><path class="st5" d="M184.7 332.4l-6.9 32.2h19l-6.9-32.2c-.6-2.8-4.6-2.8-5.2 0z"/><path class="st6" d="M191.1 337.7h-7.5l-1.9 8.5h11.2z"/><path class="st7" d="M193.2 347.7h-11.8l-.9 4.3h13.6z"/><path class="st0" d="M443.3 192.4v29c0 1.5-1.2 2.8-2.7 2.9-.3 0-.6 0-.9-.1L34.7 91.5c-1.2-.4-2-1.5-1.9-2.7v-29c0-1.5 1.2-2.8 2.7-2.9.3 0 .6 0 .9.1l405 132.6c1.2.4 1.9 1.5 1.9 2.8z"/><path class="st3" d="M411.4 212.6l22.3 7.3-12.3-34.6-22.3-7.3zM366.8 198l22.3 7.3-12.3-34.6-22.3-7.3zm-44.5-14.6l22.2 7.3-12.3-34.6-22.3-7.3zm-44.6-14.6l22.3 7.3-12.4-34.6-22.3-7.3zm-44.6-14.6l22.3 7.3-12.4-34.6-22.3-7.3zm-44.6-14.6l22.3 7.3-12.4-34.6-22.3-7.3zM143.9 125l22.3 7.3-12.4-34.6-22.3-7.3zm-44.6-14.6l22.3 7.3-12.4-34.6-22.3-7.3zM54.7 95.8l22.3 7.3-12.4-34.6-22.3-7.3z"/></g><g id="_403_Sign"><path class="st8" d="M312.6 356.2h-11V12.6c0-1.9 11-1.9 11 0v343.6z"/><path d="M312.6 141.6l-11.1 2.3v-15.8h11.1z"/><path class="st9" d="M380.8 137.7l-154.9-11.9c-6.4-.6-11.1-6.3-10.6-12.7l6.5-89.9c.3-6.4 5.8-11.3 12.2-11h.1l154.9 12c6.4.6 11.1 6.3 10.6 12.7l-6.5 89.9c-.3 6.3-5.8 11.3-12.3 10.9z"/><path class="st10" d="M381.7 139.2h-1l-154.9-11.9c-3.4-.3-6.6-1.9-8.8-4.6-2.3-2.7-3.4-6.2-3.1-9.7l6.5-89.9c.2-3.5 1.9-6.8 4.5-9.1s5.9-3.5 9.4-3.2l154.9 11.9c3.4.3 6.6 1.9 8.8 4.6 2.3 2.7 3.4 6.2 3.1 9.7l-6.5 89.9c-.2 3.5-1.8 6.8-4.5 9.1-2.3 2-5.3 3.2-8.4 3.2zM233.2 13.7c-2.4 0-4.8.9-6.6 2.5-2 1.8-3.3 4.4-3.5 7.1l-6.5 89.9c-.5 5.6 3.7 10.6 9.3 11.1l154.9 11.9c2.7.2 5.3-.7 7.3-2.5s3.3-4.4 3.5-7.1l6.5-89.9c.5-5.6-3.7-10.6-9.3-11.1L234 13.7h-.8z"/><path class="st10" d="M275.2 60l-19.5-1.5.6-9.1L277.6 27l9.3.7-1.8 24.4 4.8.4-.6 8.6-4.8-.4-.5 7.4-9.3-.7.5-7.4zm.6-8.6l.9-12.5-11.2 11.7 10.3.8zm17.8-2.7c.5-7.5 2.2-12.7 5.1-15.5s7-4 12.3-3.6c2.2.1 4.3.6 6.3 1.5 1.5.7 2.8 1.7 3.9 2.9.9 1.1 1.7 2.2 2.2 3.5.6 1.3.9 2.8 1.2 4.2.5 3.1.7 6.2.4 9.3-.5 7.2-2.1 12.4-4.7 15.6-2.6 3.2-6.8 4.5-12.6 4.1-2.7-.1-5.4-.8-7.7-2.2-1.9-1.3-3.5-3-4.6-5.1-.9-1.9-1.5-4-1.7-6.2-.3-2.8-.3-5.6-.1-8.5zm10.6.9c-.4 5-.2 8.5.6 10.5s1.9 3 3.6 3.1c1.1.1 2.1-.3 2.9-1 1-1 1.7-2.2 2-3.6.6-2.6 1-5.2 1.1-7.9.4-5.3.2-8.8-.5-10.7-.5-1.7-2-2.9-3.7-3-1.7-.1-3.3.9-4 2.5-1 1.7-1.7 5.1-2 10.1zm36.2-5.5l-10-2.7c.9-3 2.8-5.6 5.4-7.3 2.5-1.6 5.9-2.2 10.3-1.9 5 .4 8.6 1.6 10.7 3.7 2 2 3.1 4.7 2.8 7.5-.1 1.7-.7 3.2-1.7 4.5-1.2 1.4-2.7 2.6-4.4 3.3 1.2.3 2.3.9 3.4 1.6 1.2.9 2.1 2.1 2.7 3.4.6 1.5.9 3.2.7 4.8-.2 2.3-.9 4.6-2.2 6.5-1.3 2-3.2 3.6-5.4 4.5-2.8 1-5.8 1.4-8.8 1.1-2.8-.1-5.6-.7-8.2-1.9-1.9-.9-3.5-2.3-4.7-4.1-1.3-1.9-2.1-4.1-2.6-6.4l10.8-.6c.1 1.7.6 3.4 1.6 4.8.8.9 2 1.5 3.3 1.5 1.4.1 2.7-.4 3.7-1.3 1.1-1.1 1.7-2.6 1.8-4.2.2-1.5-.2-3.1-1.1-4.4-.9-1.1-2.2-1.8-3.6-1.8-1.2 0-2.4.1-3.5.4l1.1-7.8c.5.1.9.2 1.4.2 1.3.1 2.6-.3 3.6-1.1s1.6-1.9 1.6-3.2c.1-1.1-.2-2.2-.8-3-.7-.8-1.7-1.3-2.8-1.3-1.1-.1-2.3.2-3.1 1-1.2 1.3-1.8 2.7-2 4.2zm-79.9 31.5l14.9 1.1-.3 4-9.3-.7-.2 3 8.6.7-.3 3.8-8.6-.7-.3 3.6 9.6.7-.3 4.2-15.1-1.2 1.3-18.5zm16.9 19.9l1.3-18.5 9.2.7c1.3.1 2.6.3 3.9.8.9.4 1.6 1 2.1 1.9.5.9.7 2 .6 3.1 0 .9-.3 1.8-.8 2.6-.5.7-1.1 1.3-1.9 1.7-.6.3-1.3.5-2 .6.5.2 1 .5 1.4.8.3.3.6.6.8 1 .3.4.5.8.7 1.2L295 97l-6.3-.5-2.5-5.9c-.2-.6-.5-1.1-.9-1.5-.4-.3-.8-.5-1.3-.5h-.5l-.5 7.5-5.6-.6zm6.3-10.6l2.3.2c.5 0 1 0 1.5-.1.4 0 .7-.2.9-.5.2-.3.4-.6.4-1 .1-.5-.1-1-.5-1.4-.6-.4-1.3-.7-2-.6l-2.4-.2-.2 3.6zM296.9 97l1.3-18.5 9.2.7c1.3.1 2.6.3 3.9.8.9.4 1.6 1 2.1 1.9.5.9.7 2 .6 3.1 0 .9-.3 1.8-.8 2.6-.5.7-1.1 1.3-1.9 1.7-.6.3-1.3.5-2 .6.5.2 1 .5 1.4.8.3.3.6.6.8 1 .3.4.5.8.7 1.2l2.3 5.6-6.3-.5-2.5-5.8c-.2-.6-.5-1.1-.9-1.5-.4-.3-.8-.5-1.3-.5h-.5l-.5 7.5-5.6-.7zm6.3-10.6l2.3.2c.5 0 1 0 1.5-.1.4 0 .7-.2 1-.5.2-.3.4-.6.4-1 .1-.5-.1-1-.5-1.4-.6-.4-1.3-.7-2-.6l-2.4-.2-.3 3.6zm12.6 2.8c0-2.6 1.1-5.1 3-6.9 2-1.6 4.5-2.3 7-2 2.6 0 5 1.1 6.7 3 1.6 2 2.3 4.6 1.9 7.2-.1 1.8-.6 3.6-1.5 5.3-.8 1.3-1.9 2.3-3.3 3-1.6.7-3.3 1-5.1.8-1.7-.1-3.4-.5-5-1.4-1.3-.8-2.4-2-3-3.4-.6-1.9-.9-3.8-.7-5.6zm5.6.4c-.2 1.4 0 2.9.7 4.1.6.9 1.6 1.4 2.7 1.4 1.1.1 2.1-.2 2.9-1 .7-.7 1.1-2.2 1.3-4.2.2-1.4-.1-2.7-.8-3.9-.6-.9-1.6-1.4-2.7-1.4-1-.1-2.1.2-2.8 1-.9 1.2-1.4 2.6-1.3 4zm15.4 10.5l1.3-18.5 9.2.7c1.3.1 2.6.3 3.9.8.9.4 1.6 1 2.1 1.9.5.9.7 2 .6 3.1 0 .9-.3 1.8-.8 2.6-.5.7-1.1 1.3-1.9 1.7-.6.3-1.3.5-2 .6.5.2 1 .5 1.4.8.3.3.6.7.8 1.1.3.4.5.8.7 1.2l2.3 5.6-6.3-.5-2.5-5.9c-.2-.6-.5-1.1-.9-1.5-.4-.3-.8-.5-1.3-.6h-.5l-.5 7.5-5.6-.6zm6.4-10.6l2.3.2c.5 0 1 0 1.5-.1.4 0 .7-.2.9-.5.3-.3.4-.7.4-1.1.1-.5-.1-1-.5-1.4-.6-.4-1.3-.7-2-.6l-2.4-.2-.2 3.7z"/><path class="st8" d="M242 114.7l1.2-16.9 11 .8-.1 2-8.9-.7-.4 5.2 7.7.6-.1 2-7.7-.6-.6 7.7-2.1-.1zm13.8-7.3c0-2.4 1-4.7 2.7-6.4 1.6-1.5 3.7-2.2 5.8-2 1.4.1 2.8.6 4 1.4 1.2.8 2 2 2.5 3.3.6 1.5.8 3 .6 4.6-.1 1.6-.5 3.1-1.3 4.5-.7 1.2-1.8 2.2-3.1 2.9-1.3.6-2.7.9-4.1.7-1.4-.1-2.8-.6-4-1.5-1.2-.9-2-2-2.5-3.4-.5-1.1-.7-2.6-.6-4.1zm2.2.3c-.2 1.7.2 3.5 1.3 4.9 1.9 2.4 5.3 2.8 7.7.9l.3-.3c1.2-1.3 1.9-3.1 1.9-4.9.1-1.2 0-2.5-.4-3.7-.7-2-2.5-3.5-4.7-3.6-1.5-.1-3 .4-4.1 1.3-1.1 1-1.8 2.8-2 5.4zm15.7 9.4l1.2-16.9 7.3.6c1.1 0 2.2.3 3.3.7.7.4 1.4 1 1.7 1.8.4.8.6 1.7.5 2.6-.1 1.1-.5 2.2-1.4 2.9-1 .8-2.3 1.3-3.6 1.3.5.2.9.6 1.3.9.6.7 1.2 1.5 1.6 2.4l2.5 4.8-2.7-.2-1.9-3.7c-.6-1.1-1-1.9-1.4-2.4-.3-.5-.6-.9-1-1.2-.3-.2-.6-.4-1-.5-.4-.1-.8-.2-1.2-.2l-2.5-.2-.5 7.5-2.2-.2zm2.8-9.3l4.6.4c.8.1 1.6 0 2.4-.1.5-.2 1-.5 1.4-.9.3-.4.5-1 .5-1.5.1-.7-.2-1.5-.7-2-.7-.6-1.6-1-2.6-1l-5.2-.4-.4 5.5zm13.6 10.6l1.2-16.9 6.1.5c1 0 2.1.3 3 .7.7.4 1.3 1 1.7 1.7.4.7.5 1.5.5 2.3-.1.7-.3 1.4-.7 2-.5.6-1.1 1.1-1.8 1.4.9.3 1.7.9 2.2 1.7.5.8.7 1.7.6 2.6 0 .8-.3 1.5-.6 2.2-.3.6-.8 1.1-1.3 1.5-.6.4-1.2.6-1.9.7-.9.1-1.8.2-2.7.1l-6.3-.5zm2.3-1.9l4.1.3h1.5c.4 0 .9-.2 1.3-.4s.7-.5.9-.9c.6-.9.6-2.1.1-3.1-.3-.5-.7-.9-1.2-1.1-.8-.3-1.6-.4-2.4-.5l-3.8-.3-.5 6zm.5-7.8l3.5.3c.7.1 1.4.1 2.1 0 .5-.1 1-.4 1.3-.7.3-.4.5-.9.5-1.4 0-.5 0-1-.3-1.5-.2-.5-.6-.8-1.1-1-.8-.3-1.6-.4-2.5-.4l-3.3-.3-.2 5zm12.9 10.9l1.2-16.9 2.2.2-1.2 16.9-2.2-.2zm6 .4l1.2-16.9 5.6.4c1 0 1.9.2 2.9.5.9.3 1.7.7 2.3 1.4.8.8 1.4 1.9 1.7 3 .4 1.3.5 2.7.4 4.1-.1 1.2-.3 2.3-.7 3.4-.3.9-.7 1.7-1.3 2.4-.4.6-1 1-1.6 1.4-.6.3-1.3.6-2 .7-.9.1-1.8.2-2.6.1l-5.9-.5zm2.3-1.8l3.5.3c.9.1 1.7.1 2.6-.1.6-.1 1.1-.4 1.5-.8.6-.6 1.1-1.2 1.4-2 .4-1 .6-2.1.7-3.2.2-1.4 0-2.8-.5-4.1-.4-.9-1.1-1.6-1.9-2.1-.9-.3-1.8-.5-2.8-.6l-3.4-.3-1.1 12.9zm14.2 3.1l1.2-16.9 5.6.4c1 .1 2 .2 2.9.5.9.3 1.7.8 2.3 1.4.8.8 1.4 1.9 1.7 3 .4 1.3.5 2.7.4 4.1-.1 1.2-.3 2.3-.7 3.4-.3.9-.7 1.7-1.3 2.4-.4.6-1 1-1.6 1.4-.6.3-1.3.6-2 .7-.9.1-1.8.2-2.7.1l-5.8-.5zm2.3-1.8l3.5.3c.9.1 1.7.1 2.6-.1.6-.1 1.1-.4 1.5-.8.6-.6 1.1-1.2 1.4-2 .4-1 .6-2.1.7-3.2.2-1.4 0-2.8-.5-4.1-.4-.9-1.1-1.6-1.9-2.1-.9-.3-1.8-.5-2.8-.6l-3.4-.3-1.1 12.9zm14.3 3.1l1.2-16.9 11.8.9-.1 2-9.7-.7-.4 5.2 9 .7-.1 2-9.1-.7-.4 5.8 10 .8-.1 2-12.1-1.1zm15.1 1.1l1.2-16.9 2.2.2 7.6 13.9 1-13.3 2.1.2-1.2 16.9-2.2-.2-7.6-14-1 13.3-2.1-.1z"/></g><g id="Character"><path class="st11" d="M71.6 310.2s-3.5 25 0 32.4c0 0 5.6 19.5-10.3 19.5s-13.6-18.5-13.6-18.5c-1-11.2-.2-22.5 2.3-33.5h21.6z"/><path class="st12" d="M71.6 310.2s-3.5 25 0 32.4c0 0 5.6 19.5-10.3 19.5s-13.6-18.5-13.6-18.5c-1-11.2-.2-22.5 2.3-33.5h21.6z"/><path class="st11" d="M126.3 310.2s3.5 25 0 32.4c0 0-5.6 19.5 10.4 19.5s13.6-18.5 13.6-18.5c1-11.2.2-22.5-2.3-33.5h-21.7z"/><path class="st12" d="M126.3 310.2s3.5 25 0 32.4c0 0-5.6 19.5 10.4 19.5s13.6-18.5 13.6-18.5c1-11.2.2-22.5-2.3-33.5h-21.7z"/><path class="st13" d="M58.9 174.1s-40 9-36.6 37.6c0 0 .5 11.2 14.7 10.3l21.9-47.9z"/><path class="st14" d="M140.6 262.4H52.2s-26.3 28.7-21.7 90c0 0 .8 19.1 11.2 19.1 0 0 11.1 2.9 10.5-19.9s4.2-31.9 4.2-31.9h80s4.9 9 4.2 31.9 10.5 19.9 10.5 19.9c10.4 0 11.2-19.1 11.2-19.1 4.6-61.3-21.7-90-21.7-90z"/><path d="M140.6 262.4H52.2c-1.7 2-3.3 4.2-4.7 6.5 4.6 4.6 10.3 7.9 16.7 9.6.4.1.8.2 1.2.1h62c.4 0 .8 0 1.2-.1 6.3-1.6 12.1-5 16.7-9.6-1.4-2.4-2.9-4.5-4.7-6.5z" fill="#ba9d78"/><path class="st12" d="M140.6 262.4H52.2s-26.3 28.7-21.7 90c0 0 .8 19.1 11.2 19.1 0 0 11.1 2.9 10.5-19.9s4.2-31.9 4.2-31.9h80s4.9 9 4.2 31.9 10.5 19.9 10.5 19.9c10.4 0 11.2-19.1 11.2-19.1 4.6-61.3-21.7-90-21.7-90z"/><path class="st13" d="M133.8 174.1s40 9 36.6 37.6c0 0-.5 11.2-14.7 10.3l-21.9-47.9z"/><path class="st12" d="M58.9 174.1s-40 9-36.6 37.6c0 0 .5 11.2 14.7 10.3l21.9-47.9zm74.9 0s40 9 36.6 37.6c0 0-.5 11.2-14.7 10.3l-21.9-47.9z"/><path class="st14" d="M140.5 184.7c-5.1-12.8-17.4-21.3-31.2-21.4H83.4c-13.8.1-26.1 8.6-31.2 21.4l-13 31.8c-8.7 21.4 3.1 45.9 24.9 51.5.4.1.8.2 1.2.1h62c.4 0 .8 0 1.2-.1 21.8-5.6 33.6-30.1 24.9-51.5l-12.9-31.8z"/><path class="st12" d="M84.2 268.1H65.4c-.4 0-.8 0-1.2-.1-21.8-5.6-33.7-30.1-24.9-51.5l13-31.8c5.1-12.8 17.4-21.3 31.2-21.4h25.9c13.8.1 26.1 8.6 31.2 21.4l13 31.8c8.7 21.4-3.1 45.9-24.9 51.5-.4.1-.8.2-1.2.1h-18.7"/><path class="st16" d="M56.4 221c3.5 8 12.8 11.6 20.8 8.1 3.6-1.6 6.5-4.5 8.1-8.1H56.4z"/><path class="st17" d="M59.5 221c3.5 6.3 11.5 8.5 17.7 4.9 2.1-1.2 3.8-2.9 4.9-4.9H59.5z"/><path class="st18" d="M56.4 221c3.5 8 12.8 11.6 20.8 8.1 3.6-1.6 6.5-4.5 8.1-8.1H56.4z"/><path class="st16" d="M107.6 221c3.5 8 12.8 11.6 20.8 8.1 3.6-1.6 6.5-4.5 8.1-8.1h-28.9z"/><path class="st17" d="M110.7 221c3.5 6.3 11.5 8.5 17.7 4.9 2.1-1.2 3.8-2.9 4.9-4.9h-22.6z"/><path class="st18" d="M107.6 221c3.5 8 12.8 11.6 20.8 8.1 3.6-1.6 6.5-4.5 8.1-8.1h-28.9z"/><path class="st17" d="M96.4 226.7h-7.3c-1.2 0-2.2 1-2.2 2.2 0 .6.3 1.2.7 1.7l4.9 4.6c.4.4.9.6 1.4.6h4.7c.5 0 1.1-.2 1.4-.6l4.9-4.6c.5-.4.7-1 .7-1.7 0-1.2-.9-2.2-2.2-2.2h-7z"/><path class="st13" d="M96.3 238c1.2.8-5.7 11-6.4 11.8-6.2 7.2-14.6 7.7-22.4 2.6-4-2.6-3.6-8.4-1.1-12 2.8-4.1 7.7-6.2 12.6-7.6 4.7-1.2 9.7-.3 13.6 2.6l3.7 2.6z"/><path class="st19" d="M96.3 238c1.2.8-5.7 11-6.4 11.8-6.2 7.2-14.6 7.7-22.4 2.6-4-2.6-3.6-8.4-1.1-12 2.8-4.1 7.7-6.3 12.6-7.6 4.7-1.2 9.7-.3 13.6 2.6l3.7 2.6z"/><path class="st13" d="M96.6 238c-1.2.8 5.7 11 6.4 11.8 6.2 7.2 14.6 7.7 22.4 2.6 4-2.6 3.6-8.4 1.1-12-2.8-4.1-7.7-6.2-12.6-7.6-4.7-1.2-9.7-.3-13.6 2.6l-3.7 2.6z"/><path class="st19" d="M96.6 238c-1.2.8 5.7 11 6.4 11.8 6.2 7.2 14.6 7.7 22.4 2.6 4-2.6 3.6-8.4 1.1-12-2.8-4.1-7.7-6.3-12.6-7.6-4.7-1.2-9.7-.3-13.6 2.6l-3.7 2.6z"/><path class="st16" d="M59.4 203.5c-3 3.1-4.6 7.3-4.6 11.6-.1 9 7 16.4 16 16.6 7.1-.1 13.3-4.8 15.3-11.6l-26.7-16.6z"/><path class="st17" d="M61.8 205c-2.8 2.6-4.3 6.3-4.3 10.1-.1 7.5 5.8 13.6 13.2 13.8 6.1-.1 11.4-4.3 12.8-10.3L61.8 205z"/><path class="st18" d="M59.4 203.5c-3 3.1-4.6 7.3-4.6 11.6-.1 9 7 16.4 16 16.6 7.1-.1 13.3-4.8 15.3-11.6l-26.7-16.6z"/><path class="st16" d="M133 203.5c3 3.1 4.6 7.3 4.6 11.6.1 9-7 16.4-16 16.6-7.1-.1-13.3-4.8-15.3-11.6l26.7-16.6z"/><path class="st17" d="M130.6 205c2.8 2.6 4.3 6.3 4.3 10.1.1 7.5-5.8 13.6-13.3 13.7-6.1-.1-11.4-4.3-12.8-10.3l21.8-13.5z"/><path class="st18" d="M133 203.5c3 3.1 4.6 7.3 4.6 11.6.1 9-7 16.4-16 16.6-7.1-.1-13.3-4.8-15.3-11.6l26.7-16.6z"/><text transform="matrix(.97 0 0 1 174.63 192.87)" class="st17" font-size="80.17" font-family="Arial-BoldMT">!</text></g><g id="Barricade"><path class="st10" d="M231.6 366h-25.1l18.2-149.5h25.1z"/><path class="st22" d="M231.6 366h-25.1l18.2-149.5h25.1z"/><path class="st8" d="M204.3 366h2.2l18.2-149.5h-2.2z"/><path class="st10" d="M325.1 366H300l18.2-149.5h25.1z"/><path class="st22" d="M325.1 366H300l18.2-149.5h25.1z"/><path class="st8" d="M297.8 366h2.2l18.2-149.5H316z"/><path class="st10" d="M254.8 348.2h90.9l-3.9-32.5h-91z"/><path class="st8" d="M254.8 348.2h-1.5l-4-32.5h1.5z"/><path class="st9" d="M340.7 317.1l3.6 29.7H339l-14.5-29.7zm-25.3 0l14.4 29.7h-19.7l-14.5-29.7zm-28.9 0l14.4 29.7h-19.7l-14.4-29.7zm-28.9 0l14.4 29.7h-16.2l-3.6-29.7z"/><path class="st10" d="M337 366h25.1l-18.2-149.5h-25.1z"/><path class="st23" d="M326.9 283.1l26.4 10.7-7.6-62.1h-25.1z"/><path class="st8" d="M337 366h-2.2l-18.3-149.5h2.3z"/><path class="st10" d="M243.5 366h25.1l-18.2-149.5h-25.1z"/><path class="st23" d="M233.4 283.1l26.4 10.7-7.6-62.1h-25.1z"/><path class="st8" d="M243.5 366h-2.2l-18.2-149.5h2.2z"/><path class="st10" d="M223.4 276.2h136.9l-6-49H217.4z"/><path class="st8" d="M223.4 276.2h-2.2l-6-49h2.2z"/><path class="st9" d="M352.8 229.3l5.4 44.8h-8.1l-21.7-44.8zm-38.2 0l21.7 44.8h-29.7l-21.7-44.8zm-43.5 0l21.7 44.8h-29.7l-21.7-44.8zm-43.5 0l21.7 44.8H225l-5.5-44.8z"/></g></svg>