<svg xmlns="http://www.w3.org/2000/svg" xmlns:xlink="http://www.w3.org/1999/xlink" viewBox="0 0 419.62 417.24"><defs><radialGradient id="radial-gradient" cx="170.05" cy="209.27" r="15.25" gradientTransform="matrix(.99948 -.03228 .02228 .68964 -4.59 69.66)" gradientUnits="userSpaceOnUse"><stop offset=".17" stop-color="#662346"/><stop offset="1" stop-color="#662346" stop-opacity="0"/></radialGradient><radialGradient id="radial-gradient-2" cx="244.49" cy="207.34" r="15.25" gradientTransform="matrix(.99948 -.03228 .02228 .68964 -4.51 71.47)" xlink:href="#radial-gradient"/><style>.cls-12,.cls-16,.cls-18,.cls-22,.cls-24{mix-blend-mode:multiply}.cls-12,.cls-16,.cls-24{opacity:.5}.cls-6{fill:#fff}.cls-10,.cls-24,.cls-7,.cls-8,.cls-9{fill:none;stroke-linecap:round;stroke-linejoin:round}.cls-7{stroke:#268e26}.cls-10,.cls-7,.cls-8,.cls-9{stroke-width:.63px}.cls-8{stroke:#fff}.cls-9{stroke:#0032d0}.cls-10{stroke:#d30000}.cls-11{fill:#2b232d}.cls-12{fill:#140716}.cls-15,.cls-16{fill:#61376b}.cls-17,.cls-18{fill:#a62e3a}.cls-18{opacity:.35}.cls-19{fill:#3d243e}.cls-20{fill:#1d111e}.cls-21,.cls-22{fill:#fabd3c}.cls-22{opacity:.9}.cls-24{stroke:#1d111e;stroke-width:.68px}.cls-29{fill:#5e2600}</style></defs><g style="isolation:isolate"><g id="Layer_2" data-name="Layer 2"><g id="OBJECTS"><ellipse cx="209.8" cy="404.47" rx="165.93" ry="12.77" style="mix-blend-mode:multiply" fill="#f0b33b" opacity=".58"/><path d="M140.39 50.87c21.75-11.55 49.51-13.55 73.67-8.72 31.74 6.34 47.5 5.73 79.25 12.07C312 58 328.42 82 345.67 90.16c20.72 9.81 25 18.67 36.75 38.33 3.79 6.32 18 25.85 18.81 33.16 1.45 12.43-1.56 19.36-.07 31.78 1.7 14.19 3.12 22.93 4.84 37.12 2.49 20.55-9.77 31.24-8.78 51.92.43 8.84-5.39 20.5-6.31 29.3-.68 6.59-26.22 23.44-30 28.86-16.87 24-15.86 29.47-42.61 41.53-11.37 5.14-15.31 15.59-27.63 17.56-10.73 1.71-21.69.93-32.51-.05-21.44-1.95-34.58 4.56-55.82 1.07-18-3-41.26-1-59.5 0-8.52.44-22.89-2.66-31.24-4.42-7.37-1.56-27.32-10-33.79-13.91-13.89-8.3-28.07-23-34.14-38-2-4.94-2.58-26.63-17-47.11-13.23-18.76-10.75-18.53-15.49-59.1-2.67-22.8 2.61-52 15.84-70.8 8.81-12.49 12.13-24.1 13.93-39.28.68-5.67-.43-11.47.47-17.11 2.65-16.52 20.45-25.34 36-31.5s30.55-13.32 46.4-18.37c11.88-3.79 7.59-5.5 16.57-10.27zM33 122.67c-1-6.35-11.31-6.08-12.56 0-.43 2.1-2.34 4.39-3.36 6.35q-2 3.84-4.23 7.54C10 141.28 7 145.79 4.79 150.88c-1.57 3.62-1.61 7.59 1.36 10.56 2.49 2.49 7.55 3.68 10.56 1.36 6.13-4.73 11.45-10.28 14.67-17.45a36.14 36.14 0 003.29-11.16c.49-4.36-.96-7.38-1.67-11.52zm50.13-57.6c0 4.17-3 6.33-6.61 7.59a15.61 15.61 0 01-8 .38c-2.52-.45-3.61-4.48-1.52-6.16s3.33-2.83 5.11-4.12c.15-.11.82-.57.69-.47a8.44 8.44 0 012.86-1.65 7.17 7.17 0 014.18 0 4.68 4.68 0 013.33 4.43zM101 59.18A14.79 14.79 0 0199.63 61a6.65 6.65 0 01-3.22 1.61 4 4 0 01-4.54-5.91 4.05 4.05 0 012.4-1.85 8.34 8.34 0 013.73-.04 9.43 9.43 0 012.14 1.1 2.41 2.41 0 01.86 3.27zM7.89 295.28c-3.25-1.44-5.28-5.75-6.36-9A33.08 33.08 0 010 276.84c-.19-6.74 10.56-8.31 11.85-1.61a23.61 23.61 0 002.1 6.32c1.42 2.81 3 5.13 3.33 8.35.48 5.21-5.54 7.1-9.39 5.38zm17.9 11a4.2 4.2 0 01-.49 2.06 5.58 5.58 0 01-2.36 2.76 5.76 5.76 0 01-6.39-.46 6.59 6.59 0 01-2.55-3.52 12.66 12.66 0 01-.33-2.45A6 6 0 0124 300.41a6.19 6.19 0 011.71 3.83 7 7 0 01.16 1.28 4.38 4.38 0 01-.08.8zm390.87-89.2a2.89 2.89 0 01-5.64.77c-2.58-6.87-3.27-14.22-4.87-21.36-.69-3.07 4-5.4 5.34-2.25 3.2 7.33 6.03 14.82 5.17 22.88zm-4.18 27.41v.05s-.01-.01 0-.01zm7.14-2.57a6.18 6.18 0 01-2.05 4.16 2.77 2.77 0 01-4.29-.55c.39.53-.77-1-.8-1a6.34 6.34 0 01-.67-1.69 12.12 12.12 0 01-.22-2V240.04a4 4 0 012.71-4.77A3.94 3.94 0 01419 238a13.19 13.19 0 01.62 4zm-31 87.11c-5.8 7.93-11.44 14.71-19.75 20.09-2.17 1.41-4.88-1.38-3.53-3.54 5.29-8.48 12.2-14 20.59-19.23 1.6-.96 3.88 1.11 2.7 2.72zM341 76.64c-5.91.46-10.46-3.82-14.17-7.89a74.81 74.81 0 01-10-14.14c-3-5.43 4.73-9.74 8.18-4.79a67.17 67.17 0 0010.26 11.5c3.66 3.29 7.58 6 9.08 11a3.49 3.49 0 01-3.35 4.32zM357.83 88c-1.08-1.06-2.11-2.15-3.19-3.21 0 0-.43-.4-.5-.49a10.93 10.93 0 01-1.19-.94 5.12 5.12 0 01-1.15-1.81 2.92 2.92 0 011-3.93c-.52.44-.38.34.42-.29a2.76 2.76 0 011.13-.41 5.24 5.24 0 012.55 0 11.85 11.85 0 013.1 1.25 9.23 9.23 0 014.55 5.94 4.05 4.05 0 01-6.72 3.89zm21.25 17.76a4.44 4.44 0 01-4.89.34 22.66 22.66 0 01-6-5.11 5.43 5.43 0 010-7.51c1.83-2 5.71-2.13 7.52 0a32.44 32.44 0 013 3.66 22.38 22.38 0 012 4 4.36 4.36 0 01-1.63 4.64z" fill="#ffde66" opacity=".5"/><path class="cls-6" d="M189.83 13c0 8.86-5.38 13.56-12 13.56-6.8 0-11.57-5.27-11.57-13.06.05-8.15 5.13-13.5 12-13.5 7.03 0 11.57 5.39 11.57 13zm-20 .42c0 5.5 3 10.43 8.21 10.43s8.25-4.85 8.25-10.69c0-5.12-2.67-10.47-8.21-10.47s-8.22 5.1-8.22 10.75zm46.32-.42c0 8.86-5.38 13.56-12 13.56-6.8 0-11.58-5.27-11.58-13.06 0-8.17 5.08-13.52 12-13.52S216.15 5.39 216.15 13zm-20 .42c0 5.5 3 10.43 8.21 10.43s8.25-4.85 8.25-10.69c0-5.12-2.68-10.47-8.21-10.47s-8.22 5.1-8.22 10.75zM220.47.73a38.09 38.09 0 016.38-.5c3.28 0 5.69.76 7.22 2.14a6.92 6.92 0 012.25 5.38 7.56 7.56 0 01-2 5.5c-1.75 1.87-4.62 2.83-7.86 2.83a11.54 11.54 0 01-2.68-.23v10.31h-3.32zm3.32 12.41a11.19 11.19 0 002.75.27c4 0 6.46-1.95 6.46-5.5 0-3.4-2.41-5.05-6.08-5.05a14 14 0 00-3.13.27zm16.54 8.97a11.75 11.75 0 006 1.68c3.4 0 5.38-1.79 5.38-4.39 0-2.4-1.37-3.78-4.85-5.12C242.62 12.79 240 10.62 240 7c0-4 3.32-7 8.32-7A11.65 11.65 0 01254 1.26L253.13 4a10.24 10.24 0 00-4.89-1.22c-3.52 0-4.85 2.1-4.85 3.86 0 2.4 1.56 3.59 5.11 5 4.36 1.68 6.57 3.78 6.57 7.56 0 4-2.94 7.41-9 7.41a13.29 13.29 0 01-6.57-1.64zm18.53 2.1a2.23 2.23 0 012.25-2.36 2.19 2.19 0 012.25 2.36 2.25 2.25 0 11-4.5 0zm.95-5.46L259.28.42h3.66l-.53 18.33z"/><path class="cls-7" d="M49.21 369a6.06 6.06 0 00-.31-3.38"/><path class="cls-8" d="M48.58 369.23s-.34-2.61-1.79-2.89"/><path class="cls-9" d="M47.81 369.3s-.72-2.2-2.18-2"/><path class="cls-10" d="M50.24 369.41s-.24-2.77 1.2-3.59"/><path class="cls-11" d="M50.89 368L47 369c.15.63 3.85 15.52 17 22.79 8.64 4.78 19.22 5.1 31.45 1 36.51-12.36 81.41-2.24 81.85-2.14l.9-3.89c-1.87-.44-46.42-10.49-84 2.24-11.11 3.76-20.59 3.54-28.2-.65-11.64-6.48-15.07-20.18-15.11-20.35z"/><path class="cls-11" d="M47 369a1.09 1.09 0 00-.49-.83c1 .21 1 .42 1 .42l.4-1.25.42 1s.84-1.41 1.66-1.65a4.52 4.52 0 000 1.25l1.41-1.11a1.31 1.31 0 00-.55 1.26c0 1-.4 1.43-.66 1.52a16.7 16.7 0 01-1.95.27C48.17 369.8 47 369 47 369z"/><path class="cls-12" d="M96.5 391.67c-12.23 4.14-22.81 3.82-31.45-1C54.5 384.88 50 374.15 48.6 369.8c-.15-.46-.27-.84-.35-1.14s-.18-.67-.2-.74a.93.93 0 00-.15-.45l-.35 1.08s0-.06-.16-.14a2.92 2.92 0 00-.88-.28 1.13 1.13 0 01.49.87c.16.63 3.85 15.52 17 22.8 8.64 4.77 19.22 5.09 31.45.95 36.51-12.35 81.41-2.24 81.86-2.13l.28-1.21c-6.05-1.31-47.19-9.22-81.09 2.26z"/><path class="cls-8" d="M40.24 359.52a7.81 7.81 0 014.33 3.5m.87-5.91s0 3.87 1.07 5.54M51 357.3s-2.45 2.5-2.4 5.21"/><path class="cls-11" d="M301.81 392.54v-4c26.53-.32 45.53-7.77 52.14-20.45 3.9-7.49 3-16.42-2.52-24.49-12.93-19-44-2.26-44.3-2.09l-1.96-3.51c1.4-.76 34.58-18.59 49.53 3.35 6.36 9.33 7.36 19.75 2.76 28.59-4.3 8.24-17.24 22.14-55.65 22.6z"/><path d="M355.27 373.43c-5.94 8.16-20.08 18.71-53.46 19.11l-.05-4h1.19v2.52c31.39-.4 45.77-9.73 52.32-17.63zm-48.18-31.92l-1.93-3.51c.16-.08.7-.37 1.56-.79l1.53 2.8c.32-.17 31.38-16.88 44.3 2.09 5.51 8.07 6.42 17 2.52 24.49a24.63 24.63 0 01-3 4.48 23.76 23.76 0 001.85-3c3.91-7.49 3-16.42-2.51-24.49-12.95-18.95-44.01-2.24-44.32-2.07z" fill="#140716" opacity=".5"/><path class="cls-15" d="M260.83 295c-2.28 10.17-15.68 13.46-54.66 12.87-39 .59-52.38-2.7-54.65-12.87-2.26-13.09 3.26-27.6 11.94-43.58a91.13 91.13 0 006.28-14.64c1.25-3.77 2.23-7.39 3-10.65.47-2 .83-3.87 1.14-5.56.2-1.18.38-2.26.53-3.24 0-.22.07-.43.09-.65.08-.49.14-1 .2-1.39s.1-.84.14-1.2c.21-1.77.27-2.78.27-2.78l4.5-.15 2-.08 4.57-.16 15.82-.62v-.3l4.16.16 4.16-.16v.3l23.08.83 2.81.1h1.05v.6c0 .19 0 .44.06.73.05.55.12 1.27.22 2.15 0 .35.08.73.13 1.14.14 1.22.32 2.65.55 4.26.08.53.16 1.09.25 1.66q.27 1.78.63 3.81c.56 3.21 1.28 6.83 2.19 10.71 0 .12.07.26.1.39q.26 1.08.54 2.19c1 4 2.21 8.17 3.65 12.45 5.16 15.21 17.42 31.08 15.25 43.68zM149.26 160.22c-1.72-4.3-2.23-9.22-3-16.77-1.13-11.16-1.68-20.41-2.19-26.12-.66-7.33 3.36-5.88 6.23-4.71 5.14 2.1 12.41 7 16.11 9.69 5.76 4.15 14.8 15.93 14.56 21.39-5.72 7.2-16.04 14.56-31.71 16.52z"/><path class="cls-16" d="M181 143.7q-.42.53-.87 1.05c-1.91-6-9.18-15-14.08-18.57-3.69-2.66-11-7.59-16.11-9.68-2.1-.86-4.81-1.87-5.86.53-.52-7 3.42-5.57 6.25-4.41 5.14 2.1 12.42 7 16.11 9.69 5.73 4.16 14.76 15.94 14.56 21.39z"/><path class="cls-17" d="M154.21 159.39c-1.26-3.31-.82-7.63-1.53-13.39-1.05-8.51-1.67-15.55-2.16-19.9-.63-5.59 2.07-4.39 4-3.42 3.46 1.73 8.4 5.68 10.92 7.8 3.93 3.31 11.84 13.09 11.83 17.23-3.58 5.29-12.74 10.62-23.06 11.68z"/><path class="cls-18" d="M177.21 147a55.06 55.06 0 00-8.92-10.53c-2.52-2.12-7.47-6.06-10.93-7.79-1.93-1-4.63-2.18-4 3.41.49 4.35 1.11 11.4 2.16 19.91.33 2.68.41 5 .53 7.14-.61.1-1.22.18-1.84.24-1.26-3.31-.81-7.63-1.53-13.39-1.05-8.51-1.66-15.55-2.16-19.91-.63-5.58 2.07-4.38 4-3.41 3.46 1.73 8.4 5.68 10.93 7.8 3.72 3.15 11.02 12.08 11.76 16.53z"/><path class="cls-19" d="M236 136.67c2.22 9 29.74 25 33.6 21.66 2.78-2.39 3.13-16.73 3.23-20.38.31-11.19-1.11-19-.12-23.2s-2.26-8.24-9.37-3.85-19.61 13.81-27.34 25.77z"/><path class="cls-19" d="M236 136.67c2.22 9 29.74 25 33.6 21.66 2.78-2.39 3.13-16.73 3.23-20.38.31-11.19-1.11-19-.12-23.2s-2.26-8.24-9.37-3.85-19.61 13.81-27.34 25.77z"/><path class="cls-15" d="M236 136.67c2.22 9 29.74 25 33.6 21.66 2.78-2.39 3.13-16.73 3.23-20.38.31-11.19-1.11-19-.12-23.2s-2.26-8.24-9.37-3.85-19.61 13.81-27.34 25.77z"/><path class="cls-16" d="M269.54 158.33a2.69 2.69 0 01-2 .42c1.76-4.7 2-15.39 2.11-18.47.3-11.19-1.12-19-.13-23.2s-2.26-8.24-9.37-3.85c-1.59 1-3.46 2.22-5.48 3.69a95.57 95.57 0 018.57-6c7.11-4.39 10.36-.35 9.37 3.85s.43 12 .12 23.2c-.05 3.63-.4 17.97-3.19 20.36z"/><path class="cls-17" d="M238.89 141.56c1.32 5.35 19.45 17 21.74 15.08 1.66-1.43 5-13.18 5.77-21.4.66-6.64-.67-11.32-.07-13.83s-1.35-4.91-5.58-2.29-17.23 15.31-21.86 22.44z"/><path class="cls-18" d="M266.4 135.24c-.81 8.22-4.11 20-5.77 21.4a.94.94 0 01-.54.2 88 88 0 003.44-16.21c.65-6.64-.66-11.32-.08-13.83s-1.34-4.91-5.58-2.29c-3.45 2.13-12.76 11-18.58 18a5 5 0 01-.4-1c4.63-7.14 17.62-19.82 21.86-22.44s6.17-.21 5.58 2.3.73 7.23.07 13.87z"/><path class="cls-15" d="M278.32 184.06a32.67 32.67 0 01-5.15 18.94 42 42 0 01-8.1 9.29c-.62.53-1.24 1-1.89 1.55s-1.29 1-2 1.47c-.5.35-1 .71-1.53 1.05s-1 .68-1.57 1q-2.46 1.53-5.07 2.82l-.29.13-.61.26-.43.16-.4.14q-.62.21-1.35.42l-1 .27-.82.21-.54.13-1.55.34-2 .39c-.89.18-1.82.34-2.79.5l-.89.14-1.59.24h-.23l-1.39.2-1.7.23h-.28l-2.56.31-1.51.18-1.46.15-1.14.12-2.24.22-1.95.17-1 .08-3 .23-2 .14-2.74.17-1.24.07h-1.09l-1.81.08-1.47.06-1.8.05h-2.83a142.28 142.28 0 01-24-1.23l-1-.16-.93-.13-2.4-.31h-.08l-.36-.05-1.56-.18-1.65-.2-1.6-.2-1.42-.2h-.18c-.53-.08-1.06-.16-1.59-.26s-1.06-.18-1.59-.29l-1.52-.34h-.1c-.44-.11-.88-.22-1.32-.35l-.19-.05a33.76 33.76 0 01-9.12-4.16c-.46-.3-.92-.61-1.36-.93s-.86-.65-1.28-1c-.5-.38-1-.79-1.46-1.22l-.27-.25a38.25 38.25 0 01-5.12-5.63 17 17 0 01-2.24-4.1c-2.44-6.27-1.76-14-1.06-20.34.33-3.05.79-6.06 1.24-9.09a48.88 48.88 0 015.58-16.7 38.51 38.51 0 014.44-6.38 30.15 30.15 0 012.12-2.26 34.46 34.46 0 016.05-4.75 69.92 69.92 0 0110.49-5.21l1.48-.59c1.12-.44 2.27-.86 3.44-1.26.73-.25 1.48-.5 2.24-.73a108.37 108.37 0 0118.18-4 118.26 118.26 0 0116.8-1c2.7 0 5.41.08 8.11.2a100.91 100.91 0 0115.43 1.71 59.64 59.64 0 015.78 1.47c.52.15 1 .32 1.55.49a43.77 43.77 0 0114.35 8q1.67 1.42 3.25 3.07c.31.32.61.65.91 1l.05.05c.05.05.21.24.31.37s.26.29.38.44c.32.36.62.73.93 1.12.33.41.65.82 1 1.26l.5.69.16.22c.2.28.38.57.58.86s.38.56.56.85.22.33.32.5l.28.43.3.52c.24.4.48.79.71 1.2l.49.88a94.56 94.56 0 012.51 4.86c.59 1.24 1.13 2.46 1.62 3.65.25.6.48 1.19.71 1.78s.44 1.17.64 1.74.39 1.16.57 1.72.42 1.4.61 2.09.37 1.37.52 2.05c.31 1.34.55 2.66.74 3.94 0 .28.08.55.11.84 0 .27.07.56.09.84v1.16q.25.86.28 1.64z"/><path class="cls-20" d="M196.57 180.89l-.28-3c-.09-1.59-1.14-1.76-1.71-.12l-.17.74c-.4 2.19-1.18 2.79-3.47 2.37l-42-6.21c-1.77-.37-1.77 2.88-.44 3l44.91 6.21c1.76.31 3.17-.64 3.16-2.99z"/><path class="cls-21" d="M194.8 184.13c-1.88 31.42-49.1 26.67-45.53-6.3z"/><path class="cls-22" d="M194.64 186c-3.52 28.92-47.47 24.34-45.5-6.64 1.79 25.93 38.86 29.92 45.5 6.64z"/><path class="cls-20" d="M188.41 183c-1.36 22.63-35.37 19.21-32.8-4.53z"/><path class="cls-6" d="M161.4 184.43c-6.05 2.16-8.55 6.52-5.93 7.14s6.81-3.93 7.74-4.82c1.89-1.81 1.38-3.46-1.81-2.32zm1.54 6.44c-4.13 1.47-5.85 4.46-4.05 4.87s4.65-2.68 5.29-3.29c1.29-1.24.94-2.36-1.24-1.58z"/><path class="cls-20" d="M263.54 177.41l-44.89 6.21c-2.81.36-3.9-.55-3.75-3.58 0-.61.23-2.45.23-2.45.1-1.83 1.46-1.06 1.68-.12.41 3.29 2.42 3.36 4.48 3.06l42-6.21a1.55 1.55 0 11.25 3.09z"/><path class="cls-21" d="M216.69 183.9c1.88 31.41 49.1 26.66 45.53-6.31z"/><path class="cls-22" d="M217.22 188c7.87 21.74 43.75 17.21 45.15-8.53 1.54 29.79-39.68 34.8-45.15 8.53z"/><path class="cls-20" d="M223.08 182.79c1.36 22.62 35.37 19.2 32.8-4.54z"/><path class="cls-6" d="M250.09 184.2c6 2.16 8.55 6.52 5.93 7.13s-6.81-3.93-7.74-4.82c-1.89-1.81-1.38-3.46 1.81-2.31zm-1.54 6.43c4.13 1.48 5.85 4.46 4 4.88s-4.65-2.69-5.29-3.3c-1.26-1.21-.89-2.36 1.29-1.58z"/><path class="cls-17" d="M210.15 192.29c-.55-1.33-8.92-1.33-9.78.35-.67 1.31 2.78 5.91 4.88 5.91 1.62-.01 5.61-4.55 4.9-6.26z"/><path d="M205.26 198.55c-1.67 0-4.18-2.88-4.82-4.73 1.06 1.44 2.59 2.79 3.73 2.78 1.3 0 4.12-2.91 4.82-4.95.62.16 1 .37 1.15.64.73 1.71-3.27 6.25-4.88 6.26z" style="mix-blend-mode:multiply" opacity=".28" fill="#a62e3a"/><path class="cls-24" d="M300.32 202.34c-1.22-.2-2.65-1.06-2.41-2.27a1.78 1.78 0 011.53-1.27 4.63 4.63 0 012.07.34c1.64.56 3.49 1.76 3.31 3.49a2.87 2.87 0 01-1.65 2.15 8.52 8.52 0 01-2.73.7c-2.37.34-5.09.57-6.83-1.07A5.6 5.6 0 00292 203c-1.35-.53-2.66.81-3.53 2s-2.27 2.46-3.58 1.81c-.89-.44-1.16-1.56-1.77-2.34a3.21 3.21 0 00-4-.81c-.51.29-.93.71-1.45 1a1.46 1.46 0 01-1.64-.06 4.14 4.14 0 01-.49-.72 2.56 2.56 0 00-2.32-.9h-.07a10.14 10.14 0 00-2.42.71 26.74 26.74 0 01-5.31 1.22c-1.44.19-2.9.31-4.36.42-1.14.1-2.28.18-3.4.3-8.39.85-13.81 4.1-22.07 2.45m62.75 9.92a5.13 5.13 0 003-.61 2 2 0 00.72-2.64 2.54 2.54 0 00-1.44-.83 12.18 12.18 0 00-8.64.77 7.81 7.81 0 01-3.16 1.18c-1.55 0-2.9-1.18-4.45-1.25s-2.69.81-4 1.28a7.52 7.52 0 01-7-1.12c-.64-.5-1.33-1.14-2.13-1a2.2 2.2 0 00-.79.37c-1.34.92-2.54 2.25-4.15 2.45a7.14 7.14 0 01-3.4-.74c-.5-.19-1-.38-1.61-.55-1-.31-2.17-.6-3.4-.86-1-.22-2.08-.42-3.19-.6a101.13 101.13 0 00-19-1.33m-1.43 4.67h.11c.73.15 1.58.3 2.51.45l1.84.29 3.5.54 2.6.44a61.32 61.32 0 017.36 1.65 18.58 18.58 0 012.5.94c2.06 1 4.16 2.24 6.45 2.1 1.22-.07 2.42-.55 3.63-.38 1.62.22 2.94 1.55 4.57 1.72 1.29.12 2.56-.51 3.85-.41a23.74 23.74 0 012.61.66c1.62.31 3.69-.07 4.56 1.32.34.53.39 1.2.71 1.74a2.91 2.91 0 001.2 1c2.37 1.27 5.25.93 7.91.56.73-.1 1.59-.3 1.88-1a1.4 1.4 0 00-.82-1.68 2.65 2.65 0 00-2 .11"/><path d="M206.05 192a6.44 6.44 0 00-4.87.75c-.25.17-.17.68.18.69a10.25 10.25 0 002.17-.41 19.48 19.48 0 012.4-.23c.39-.03.52-.68.12-.8z" style="mix-blend-mode:screen" opacity=".65" fill="#a62e3a"/><ellipse cx="170.05" cy="209.27" rx="16.85" ry="11.56" style="mix-blend-mode:color-dodge" fill="url(#radial-gradient)"/><ellipse cx="244.49" cy="207.34" rx="16.85" ry="11.56" style="mix-blend-mode:color-dodge" fill="url(#radial-gradient-2)"/><path d="M192.4 178.68c-3.93 0-7.93-1.25-11.77-2.06-3.69-.79-7.41-1.76-11.17-2.23-.52-.06-.59.75-.12.89 3.95 1.22 8.1 1.89 12.13 2.76l5.79 1.24c1.69.36 3.57 1 5.28.45a.54.54 0 00-.14-1.05zm70.34-6.18c-7.23.21-14.5 1.71-21.64 2.73l-11 1.57c-2 .28-11.68 2.56-11.59-1 0-.6-1-.77-1.09-.14-.51 3.49 4.06 3.33 6.32 3.16 4.22-.32 8.43-1.11 12.62-1.71 8.76-1.26 17.54-2.82 26.37-3.44.76-.04.78-1.2.01-1.17z" style="mix-blend-mode:screen" opacity=".43" fill="#3d243e"/><path class="cls-15" d="M194.58 136.57c3.17-4.53 11.12-11.06 13.3-9.36.58.55-2.2 3.08-2.58 4.91 3-2.12 9.75-7 9.68-5 .07 1-1.38 3-2.07 4.44 1.59-1.49 9-5.82 9.3-3.69a16.28 16.28 0 01-.46 6.4l-16.25 2z"/><path class="cls-16" d="M278.32 184.06a32.67 32.67 0 01-5.15 18.94 42 42 0 01-8.1 9.29c-.62.53-1.24 1-1.89 1.55s-1.3 1-2 1.46c-.5.36-1 .71-1.52 1.06s-1 .68-1.57 1q-2.46 1.51-5.07 2.81l-.29.14-.61.26-.43.16-.4.14q-.62.21-1.35.42l-1 .27-.82.21-.54.13-1.55.34-2 .39c-1.16.22-2.39.43-3.69.64l-1.59.24h-.26l-1.39.2-1.7.23h-.28l-2.56.31-1.51.18-1.46.15-1.14.12-2.24.22-1.95.17-1 .08-3 .23-2 .14-2.74.17-1.24.07h-1.09l-1.81.08-1.47.06-1.8.05h-2.83a142.28 142.28 0 01-24-1.23l-1.91-.29-2.4-.31h-.08l-1.92-.23-1.65-.2-1.6-.2-1.42-.2h-.18c-.53-.08-1.06-.16-1.59-.26s-1.06-.18-1.59-.29l-1.52-.34h-.1c-.44-.11-.88-.22-1.32-.35l-.19-.05a33.76 33.76 0 01-9.12-4.16c-.46-.3-.92-.61-1.36-.93s-.89-.65-1.32-1a34.59 34.59 0 008.28 2.67c2.45.56 5.29 1.08 8.43 1.55 1 .16 2.1.31 3.2.46 1.64.22 3.34.42 5.1.61h.37c1.39.14 2.82.28 4.27.4 16.32 1.4 36.27 1.41 52.83-1.65l.78-.15c1.49-.28 2.94-.59 4.36-.93.52-.12 1-.24 1.54-.38l.88-.23a60 60 0 0012.46-4.64 32 32 0 006.41-4.28 35.25 35.25 0 004.4-4.63c11.69-14.83 7.18-35 3.19-46.2-.19-.52-.38-1-.56-1.5a69.69 69.69 0 00-3-6.86c.33.41.65.82 1 1.26l.5.69.16.22c.2.28.38.57.58.86s.38.56.56.85.22.33.32.5l.28.43.3.52c.24.4.48.79.71 1.2l.49.88a94.56 94.56 0 012.51 4.86c.59 1.24 1.13 2.46 1.62 3.65.25.6.48 1.19.71 1.78s.44 1.17.64 1.74.39 1.16.56 1.72.43 1.4.62 2.09.37 1.37.52 2.05c.31 1.34.55 2.66.74 3.94 0 .28.08.55.11.84 0 .27.07.56.09.84v.23a1.94 1.94 0 010 .24v.69q.32 1.03.35 1.81z"/><path class="cls-24" d="M184.49 208.08c-8.27 1.65-13.69-1.6-22.07-2.45-2.65-.27-5.33-.38-8-.75a26.34 26.34 0 01-5.11-1.19 9.65 9.65 0 00-2.5-.72 2.54 2.54 0 00-2.31.9 4.14 4.14 0 01-.49.72 1.24 1.24 0 01-1.09.25 1.77 1.77 0 01-.56-.19c-.51-.28-.94-.7-1.44-1a3.23 3.23 0 00-4 .81c-.6.78-.88 1.9-1.77 2.34-1.3.65-2.7-.64-3.57-1.81s-2.18-2.5-3.54-2c-.65.26-1.06.9-1.58 1.38-1.73 1.64-4.46 1.41-6.82 1.07a8.45 8.45 0 01-2.73-.7 2.91 2.91 0 01-1.66-2.15c-.17-1.73 1.67-2.93 3.32-3.49a4.61 4.61 0 012.07-.34 1.77 1.77 0 011.52 1.27c.25 1.21-1.18 2.07-2.4 2.27m64.71 10.15c-6.9-.34-20.78.85-27.22 3.35l-.76.3a5.73 5.73 0 01-2.63.44c-1.36-.17-2.43-1.15-3.55-2-.2-.15-.4-.3-.61-.44a2.12 2.12 0 00-.79-.37c-.79-.15-1.49.49-2.13 1a7.5 7.5 0 01-7 1.12c-1.34-.47-2.61-1.35-4-1.28s-2.9 1.27-4.46 1.25a7.76 7.76 0 01-3.15-1.18 12.19 12.19 0 00-8.64-.77 2.5 2.5 0 00-1.44.83 2 2 0 00.71 2.64 5.18 5.18 0 003 .61m9.15 9.32a2.65 2.65 0 00-2-.11 1.39 1.39 0 00-.82 1.68c.28.69 1.14.89 1.88 1 2.66.37 5.54.71 7.9-.56a2.87 2.87 0 001.21-1c.32-.54.37-1.21.7-1.74.88-1.39 2.95-1 4.56-1.32a24.5 24.5 0 012.62-.66c1.29-.1 2.56.53 3.85.41 1.63-.17 2.95-1.5 4.57-1.72 1.21-.17 2.41.31 3.63.38a10.25 10.25 0 005-1.4l1.41-.7a16.4 16.4 0 012-.79c.43-.14.87-.28 1.34-.41a88.39 88.39 0 019.06-1.82l2-.32 1.22-.19c1.83-.27 3.48-.54 4.78-.8"/><path class="cls-16" d="M238.49 223.52a42.36 42.36 0 00-3.11-3.52c-.29-.3-.59-.59-.89-.88a42.34 42.34 0 00-3.79-3.27 39.55 39.55 0 00-16-7.75c-.15.64-.37 1.14-.68 1.24-.66.2-1.64-.79-2.41-1.73a27.59 27.59 0 00-11 1c-.48.75-1 1.36-1.52 1.31-.23 0-.44-.25-.64-.57a31 31 0 00-2.95 1.35 38.07 38.07 0 00-6.18 4c-.4.31-.79.63-1.18 1a86.54 86.54 0 00-8.9 9c-2.74 3.11-5.55 6.21-8 9.55a.6.6 0 00-.09.13c.42-1.8 2.68-8.27 3-9.79 0 0 1-.37 1-.38.68-.92 1.38-1.82 2.11-2.72l.45-.55c.51-.61 1-1.21 1.56-1.81l.77-.85c.74-.79 1.49-1.57 2.27-2.32a53.79 53.79 0 014.22-3.75l.54-.44a40.66 40.66 0 019.71-5.71c-1.29-1.13-1.21-2-1.21-2l21.09-1a3.17 3.17 0 01-.37 1.65 41.5 41.5 0 0111.73 4.8 49.54 49.54 0 0110.77 8.58c.12.11.23.23.34.35s.5.53.74.8c.92 1 1.79 2.08 2.59 3.15a9.94 9.94 0 015.23-.34l-1.55.34-2 .39c-.89.18-1.82.34-2.8.5l-.89.14-1.59.24h-.12z"/><path class="cls-29" d="M323.39 406.9H90.55a13.68 13.68 0 01-13.68-13.68h260.2a13.68 13.68 0 01-13.68 13.68z"/><path class="cls-29" d="M329.51 258.48v120.38A19.56 19.56 0 01310 398.42H104a19.55 19.55 0 01-19.55-19.55V258.48A19.55 19.55 0 01104 238.93h206a19.55 19.55 0 0119.51 19.55z"/><rect x="92.42" y="244.13" width="229.1" height="149.09" rx="13.53" fill="#ffc33b"/><path d="M332.06 393.22q-31.1.87-62.19 1.17c-10.36.14-20.73.16-31.09.25l-31.09.07-31.1-.08c-10.36-.08-20.73-.11-31.09-.25q-31.09-.3-62.19-1.16z" fill="#e17022" opacity=".78"/><path class="cls-6" d="M296.31 263.64v106.82a8 8 0 01-8 8H128.86a8 8 0 01-8-8V263.64a8 8 0 018-8h159.48a8 8 0 017.97 8z"/><path d="M296.31 263.64v11.49H120.88v-11.49a8 8 0 018-8h159.46a8 8 0 017.97 8z" fill="#e4640a"/><circle class="cls-6" cx="131.76" cy="265.39" r="2.06"/><circle class="cls-6" cx="141.49" cy="265.39" r="2.06"/><circle class="cls-6" cx="151.22" cy="265.39" r="2.06"/><path class="cls-16" d="M166 238.93h4.31c-1 1.9-2 3.77-2.82 5.58l-.89 1.88c-1.13 2.42-2.24 4.82-3.32 7.22-2.78 6.16-5.36 12.32-7.48 18.59-.62 1.85-1.22 3.71-1.76 5.59a5.74 5.74 0 00-.08.78 1.28 1.28 0 000 .19v1.09a1.76 1.76 0 00.07.27.24.24 0 000 .08 1.43 1.43 0 00.29.5l-.08-.06a12.44 12.44 0 01-1.07-.82h-.07l.74 2a1.85 1.85 0 01-1-1.71 5.17 5.17 0 00-.15.64 2.77 2.77 0 00-.47-1.08l.21 2.46c-.75-.57-.66-1.79-.5-2.6a.36.36 0 00-.2.12s-.6.44-.82.42l-.7 1.75a4.26 4.26 0 01.59-2.07c-.06-.36-.24-.9-.52-1-.46.75-1.24 1.71-2.23 1.75l1.61-1.58c-.81.36-1.12.13-1.12.13.86-.33 1.67-1.91 1.67-1.91 3.14-11.08 7.88-21.62 12.88-32.32.91-1.92 1.83-3.88 2.91-5.89zm93.15 4.78l-.26.17a1.2 1.2 0 01-1.66-.39l-1.92-3.07-4.67 2.92 1.91 3.07a1.19 1.19 0 01-.38 1.66l-.26.17a1.2 1.2 0 01-1.66-.39l-1.92-3.07-2.94 1.83a2.11 2.11 0 01-2.91-.67l-4.23-6.76-.16-.25h19.61-.08l1.92 3.07a1.2 1.2 0 01-.39 1.71z"/><path class="cls-7" d="M151.47 275.76a6.08 6.08 0 00-1.26 3.15"/><path class="cls-8" d="M152.14 275.83s-.88 2.48.29 3.39"/><path class="cls-9" d="M152.86 276.12s-.36 2.29 1 2.79"/><path class="cls-10" d="M150.75 274.91s-1.05 2.58-2.7 2.65"/><path class="cls-11" d="M242.37 219.37c-9.58-12.74-27.84-23.34-45.32-16.5a40.38 40.38 0 00-10.11 5.87c-11.66 9.12-18.86 22.5-23.84 33.14s-9.74 21.24-12.88 32.32-.81 1.57-1.67 1.91c0 0 .38.28 1.43-.29.57-.34.86.91.86 1.24s.9-.33.9-.33.48-.67 1 1.09c.14-.81.29-1.14.53-.9a13.71 13.71 0 001.19.9s-.77-.5-.41-2.94c3.07-10.69 7.68-20.95 12.56-31.39 4.8-10.26 11.71-23.13 22.73-31.75a37 37 0 019.15-5.33c15.62-6.11 32.14 3.62 40.87 15.24 1 1.37 2 2.84 3 4.37l3.24-2c-1.07-1.64-2.14-3.2-3.23-4.65z"/><path class="cls-12" d="M245.54 224l-3.24 2c-1-1.53-2-3-3-4.37-8.73-11.62-25.25-21.35-40.86-15.23a36.29 36.29 0 00-9.16 5.32c-11 8.62-17.93 21.5-22.73 31.75-4.88 10.43-9.49 20.7-12.56 31.39-.3 2.08.21 2.76.37 2.92l-.8-.59v-.84a18.31 18.31 0 01.84-4.58c.4-1.33.82-2.64 1.25-3.95.88-2.62 1.85-5.22 2.87-7.8s2.11-5.18 3.23-7.74 2.31-5.17 3.5-7.73c.44-1 .88-1.91 1.33-2.87 4.8-10.25 11.71-23.12 22.73-31.74a36.34 36.34 0 019.16-5.33c15.61-6.11 32.13 3.62 40.86 15.24 1 1.37 2 2.83 3 4.36l2.43-1.51z"/><path class="cls-6" d="M215 202s0 4.11-1 4.4c-1.2.37-3.53-3.28-3.53-3.28zm-17.79.89s.84 4 1.85 4.12c1.25.13 2.82-3.91 2.82-3.91z"/><path class="cls-15" d="M194.74 200.53s3.49 7.67 10.9 1.72c4 4.51 11.17 1.54 10.89-2.26"/><path class="cls-6" d="M249.14 237.84h1.54a.59.59 0 01.59.59v6.23a1.21 1.21 0 01-1.21 1.21h-.3a1.21 1.21 0 01-1.21-1.21v-6.23a.59.59 0 01.59-.59z" transform="rotate(-31.99 249.873 241.832)"/><path class="cls-16" d="M242 238.93h-3.94l-2.19-3.51a10.14 10.14 0 012.67-13.59q.27 1.78.63 3.81c.56 3.21 1.28 6.83 2.19 10.71 0 .12.07.26.1.39q.25 1.08.54 2.19z"/><rect class="cls-6" x="255.54" y="233.48" width="2.72" height="8.03" rx="1.21" transform="rotate(-31.99 256.843 237.469)"/><path d="M259.3 235l-14.21 8.88a1.76 1.76 0 01-2.42-.56l-5.67-9.04a10.14 10.14 0 013.23-14 10.14 10.14 0 0114 3.23l5.66 9.07a1.75 1.75 0 01-.59 2.42z" fill="#6bb1a2"/><path d="M241.59 219.62a10.1 10.1 0 00-2 13l6.59 10.55-1.18.73a1.69 1.69 0 01-2.32-.54l-5.68-9.03a10.22 10.22 0 013.23-14 7.21 7.21 0 011.36-.71z" style="mix-blend-mode:multiply" fill="#583929" opacity=".3"/></g><path d="M180.73 335.08V323h-20.55v-3.94l19.74-28.25h6.46v27.5h6.2V323h-6.2v12.05zm0-16.74v-14.77c0-2.31.07-4.63.21-6.94h-.21c-1.36 2.59-2.45 4.49-3.67 6.53l-10.82 15v.14zm45.8-5.85c0 15-5.58 23.34-15.38 23.34-8.64 0-14.49-8.1-14.63-22.73 0-14.84 6.4-23 15.38-23 9.33 0 14.63 8.3 14.63 22.39zm-24 .68c0 11.5 3.54 18 9 18 6.13 0 9.06-7.14 9.06-18.44 0-10.89-2.79-18-9-18-5.27-.01-9.08 6.39-9.08 18.44zm48.03 21.91V323H230v-3.94l19.73-28.25h6.47v27.5h6.19V323h-6.19v12.05zm0-16.74v-14.77c0-2.31.07-4.63.2-6.94h-.2c-1.36 2.59-2.45 4.49-3.68 6.53l-10.82 15v.14zm-107.77 31.55a20.44 20.44 0 013.38-.27 5.61 5.61 0 013.83 1.14 3.66 3.66 0 011.19 2.85 4 4 0 01-1.05 2.92A5.66 5.66 0 01146 358a6.12 6.12 0 01-1.42-.12v5.46h-1.76zm1.76 6.58a6 6 0 001.46.14c2.12 0 3.42-1 3.42-2.92s-1.28-2.67-3.22-2.67a7.45 7.45 0 00-1.66.14zm13.85 6.9l-.14-1.23h-.06a3.65 3.65 0 01-3 1.45 2.79 2.79 0 01-3-2.81c0-2.37 2.11-3.66 5.89-3.64v-.21a2 2 0 00-2.22-2.26 4.9 4.9 0 00-2.55.72l-.41-1.17a6.07 6.07 0 013.22-.87c3 0 3.73 2 3.73 4V361a14 14 0 00.16 2.35zm-.26-5c-1.95 0-4.16.3-4.16 2.21a1.58 1.58 0 001.68 1.7 2.43 2.43 0 002.37-1.64 1.92 1.92 0 00.11-.57zm13.03-4.8c0 .71-.08 1.5-.08 2.69V362c0 2.24-.44 3.62-1.39 4.47a5.22 5.22 0 01-3.57 1.17 6.3 6.3 0 01-3.26-.81l.45-1.35a5.57 5.57 0 002.87.77c1.83 0 3.16-1 3.16-3.42v-1.1a3.51 3.51 0 01-3.12 1.64c-2.43 0-4.17-2.06-4.17-4.78 0-3.32 2.17-5.2 4.42-5.2a3.24 3.24 0 013.05 1.7l.09-1.48zm-1.84 3.87a2.6 2.6 0 00-2.59-2.69c-1.7 0-2.92 1.43-2.92 3.7 0 1.93 1 3.52 2.9 3.52a2.59 2.59 0 002.47-1.82 3.13 3.13 0 00.14-.95zm5.67 1.36a3.14 3.14 0 003.36 3.4 6.52 6.52 0 002.72-.51l.3 1.28a8 8 0 01-3.26.6c-3 0-4.82-2-4.82-4.94s1.74-5.28 4.6-5.28c3.2 0 4.05 2.81 4.05 4.62a7 7 0 01-.06.83zm5.22-1.28c0-1.13-.46-2.89-2.47-2.89-1.8 0-2.59 1.66-2.73 2.89zm8.33 5.85v-13.65h1.92l4.37 6.91a40 40 0 012.45 4.43c-.16-1.82-.2-3.48-.2-5.61v-5.71h1.66v13.65H197l-4.33-6.92a42.25 42.25 0 01-2.56-4.56h-.06c.1 1.72.15 3.36.15 5.63v5.83zm22.13-4.98c0 3.63-2.52 5.2-4.88 5.2-2.66 0-4.7-1.94-4.7-5 0-3.28 2.14-5.2 4.86-5.2s4.72 2 4.72 5zm-7.78.1c0 2.15 1.23 3.77 3 3.77s3-1.6 3-3.81c0-1.66-.83-3.76-2.93-3.76s-3.07 1.94-3.07 3.8zm12.17-7.73v2.81h2.55v1.36h-2.55v5.28c0 1.22.34 1.91 1.33 1.91a4.1 4.1 0 001-.12l.08 1.33a4.43 4.43 0 01-1.58.24 2.47 2.47 0 01-1.92-.74 3.63 3.63 0 01-.69-2.56v-5.34h-1.52v-1.36h1.52v-2.35zm8.93-1.04h7.35v1.48h-5.59v4.54h5.16v1.46h-5.16v6.17H224zm18 8.67c0 3.63-2.51 5.2-4.88 5.2-2.66 0-4.7-1.94-4.7-5 0-3.28 2.15-5.2 4.86-5.2s4.72 2 4.72 5zm-7.78.1c0 2.15 1.24 3.77 3 3.77s3-1.6 3-3.81c0-1.66-.83-3.76-2.93-3.76s-3.05 1.94-3.05 3.8zm18.24 2.21c0 1 0 1.9.09 2.67H251l-.11-1.6a3.67 3.67 0 01-3.24 1.82c-1.53 0-3.38-.85-3.38-4.29v-5.73H246V359c0 1.86.57 3.12 2.19 3.12a2.57 2.57 0 002.35-1.62 2.67 2.67 0 00.16-.91v-6h1.78zm2.96-4.48c0-1 0-1.84-.08-2.65h1.58l.1 1.62a3.61 3.61 0 013.24-1.84c1.36 0 3.46.81 3.46 4.17v5.85H262v-5.65c0-1.58-.59-2.89-2.27-2.89a2.54 2.54 0 00-2.39 1.82 2.59 2.59 0 00-.12.83v5.89h-1.78zm19.7-7.22v11.84c0 .87 0 1.86.08 2.53h-1.6l-.08-1.7a3.63 3.63 0 01-3.34 1.92c-2.37 0-4.19-2-4.19-5 0-3.26 2-5.26 4.39-5.26a3.29 3.29 0 013 1.5V349zm-1.78 8.56a3.19 3.19 0 00-.08-.75 2.63 2.63 0 00-2.57-2.06c-1.85 0-2.94 1.62-2.94 3.78 0 2 1 3.63 2.89 3.63a2.69 2.69 0 002.62-2.13 3.14 3.14 0 00.08-.77z" fill="#ee6522" id="Layer_4" data-name="Layer 4"/></g></g></svg>