<svg xmlns="http://www.w3.org/2000/svg" viewBox="0 0 428.81 415.16"><defs><clipPath id="clip-path"><circle class="cls-1" cx="196.75" cy="372.23" r="24.74" transform="rotate(-5.46 196.655 372.065)"/></clipPath><clipPath id="clip-path-2"><path class="cls-2" d="M267.44 69.7a40 40 0 00-9.85-9.82A146.77 146.77 0 00242 51.83l-3.24-18a61 61 0 008.28-9.8c2.92-4.7 2-7.87.13-11.13s-4.46-1.14-4.85.34a33.42 33.42 0 00-.52 4.76s-1.7-12-2.71-14.76-4.85-.11-4.52.81c0 0-1.15-3.41-3.55-3.45s-3.07 4-3.07 4-3.07-1.42-4.79.36-.9 6.24-.9 6.24-2.74 1-3.16 4.9-.08 10.7 1 12.57a20.5 20.5 0 011.44 2.78c-1.36 16.24-1.31 15.17-1.71 21.65-.28 4.56 2.71 15.16 7 19.56s19.71 12.24 19.71 12.24 15.97-4.15 20.9-15.2z"/></clipPath><clipPath id="clip-path-3"><path class="cls-2" d="M227.49 88.35s-4.47.47-5.88 1.67-12.14 10.38-13.88 15.83 4.87 21.73 12.09 28 16.24 12.93 23.9 11.55 16.46-13.16 17.37-16.37S232 89 232 89s-2.1-2.11-4.51-.65z"/></clipPath><clipPath id="clip-path-4"><path class="cls-2" d="M265.67 66.53s-4.74-1.59-11.79 1.4-24.73 13.38-27.32 22.4c-1.71 5.94 17 33.63 28.69 38.18 3.15 1.23 6 2.55 12.43-2.68s19.91-19.83 23.44-26.21-2-11.19-3.85-14-16.64-21.2-21.6-19.09z"/></clipPath><clipPath id="clip-path-5"><circle class="cls-2" cx="287.21" cy="66.22" r="26.5" transform="rotate(-48.59 287.214 66.225)"/></clipPath><clipPath id="clip-path-6"><path class="cls-2" d="M293 96.91s-10.29-2.77-14.34 5 .52 27 .52 27-7.52 12.22-9.43 13.55-7.29.74-12.59 3.45-3.54 5.47-2.14 6.4 5.73-1.85 7-1.75 1.13 2.39-3.87 7.58-7.32 5.34-5.86 7.75a3.71 3.71 0 004 1.79 2.56 2.56 0 001.41 3.06c2.05 1 2.93.23 2.93.23s-.2 2.61 1.71 3.42a8.13 8.13 0 004.59 0s1.81 2.11 3.64 1.76 6-5.44 9.3-9.78 16-19.77 21-29.23 2.63-19 1.61-24.83-5.65-14.11-9.48-15.4z"/></clipPath><clipPath id="clip-path-7"><path class="cls-2" d="M202.34 100.5s4.16 12 9.51 12.9 12.79-8.2 14.3-15-3.8-12.28-11.48-19.12-18.69-10.82-28-5.63-23.08 20-23.08 20-8.6-7.56-13.18-3.65 1.39 15.87 5.6 20.8 11.86 12.09 19.22 10.37 13.21-15.56 18-19.62 8.06-2.28 9.11-1.05z"/></clipPath><clipPath id="clip-path-8"><path class="cls-2" d="M226.41 143s12.17 3.58 16-.25 4.4-15.43-3.88-20.34c-6-3.54-12.21-4-22.24-1.77s-19.66 8.94-20.83 19.5 2.91 30.42 2.91 30.42-11.16 2.61-10.64 8.6 13.73 8.09 20.19 7.53 16.73-2.63 19.6-9.63-5-19.78-5.53-26 2.81-7.91 4.42-8.06z"/></clipPath><style>.cls-1{fill:#263238}.cls-2,.cls-6,.cls-8{fill:#fff}.cls-13,.cls-2,.cls-9{stroke:#263238;stroke-linecap:round;stroke-linejoin:round;stroke-width:1.19px}.cls-13,.cls-3{fill:#c6ff00}.cls-8{opacity:.5}.cls-9{fill:none}</style></defs><g id="Layer_2" data-name="Layer 2"><g id="Background_Simple" data-name="Background Simple"><path class="cls-3" d="M4.16 234.84s-.48 70.81 56.64 119.44 138.69 54.06 204.65 60.2 118.22-30.09 128.09-86.59-40-74.41-64.93-139.63S307 101.88 250.5 60.73s-148.18-19-198.41 47.75S4.16 234.84 4.16 234.84z"/><path d="M4.16 234.84s-.48 70.81 56.64 119.44 138.69 54.06 204.65 60.2 118.22-30.09 128.09-86.59-40-74.41-64.93-139.63S307 101.88 250.5 60.73s-148.18-19-198.41 47.75S4.16 234.84 4.16 234.84z" opacity=".7" fill="#fff"/></g><g id="Planet_3" data-name="Planet 3"><circle class="cls-1" cx="348.94" cy="212.5" r="15.34" transform="rotate(-54.76 348.977 212.498)"/><path class="cls-3" d="M356.66 204.27l7.45 10.44a15.34 15.34 0 00-.35-6.08zm-15.6-4.92l17.68 25a15.35 15.35 0 003.61-4.39l-14.83-22.67a15.31 15.31 0 00-6.46 2.06zm7.31 28.46l-7.68-11 4 10.42a15.07 15.07 0 003.68.58zm6.24-1.07l-17.56-23.94c-.17.22-.33.44-.49.67l12.67 24.37a15.7 15.7 0 005.38-1.1z"/></g><g id="PLanet_2" data-name="PLanet 2"><circle class="cls-1" cx="196.75" cy="372.23" r="24.74" transform="rotate(-5.46 196.655 372.065)"/><g clip-path="url(#clip-path)"><path class="cls-3" d="M219.06 382.92l-16.88-26.48 19.17 18.42c.06-.51.09-1 .12-1.55l-22.72-25.74a25.27 25.27 0 00-5.82.22l4.56 7.25-7.54-6.6 6 10.86-12.13-8.13c-.3.18-.6.37-.89.57l22.51 25-17.86-13.59 6.35 10-9.25-6.39 24.22 27.05a24.42 24.42 0 007.57-6.56l-4.98-8.25 6.12 6.51a24.55 24.55 0 001.45-2.59zm-15.01 12.94l-19.35-22.31 8.6 13.27-21.2-16.62a24.75 24.75 0 0021.43 26.56l-7.65-6.8 11.86 7a24.22 24.22 0 006.31-1.1zm1.95-46.58l10.85 12.61-2.2-4.81 3.51 2.7a24.65 24.65 0 00-12.16-10.5zm-25.25 19.5l-5.87-8.1a25.15 25.15 0 00-2.5 7.3z"/></g><path class="cls-1" d="M233.51 355.77c-1.8-3.94-9.77-4.48-20.38-2.08a24.33 24.33 0 011.91 1.89c7.92-1.81 13.58-1.65 14.74.89 2.06 4.5-10.79 14.8-28.7 23s-34.11 11.19-36.17 6.68c-1.07-2.32 1.84-6.19 7.35-10.5A23.9 23.9 0 01172 373c-7.69 6-11.78 11.83-10.09 15.52 2.86 6.24 21.19 4 40.95-5.08s33.5-21.44 30.65-27.67z"/></g><g id="Planet_1" data-name="Planet 1"><circle class="cls-3" cx="79.22" cy="136.65" r="24.43" transform="rotate(-76.57 79.23 136.655)"/><path class="cls-1" d="M85 118.58a19 19 0 015.57-3.58 24.31 24.31 0 00-6.3-2.28 56.64 56.64 0 00-6.44 5c-8.74 8-6.35 7.15-19.06 11.92a21 21 0 00-3.37 1.61 24.16 24.16 0 001.13 14.33c4.54-1.38 10.57-3.63 13.36-6.41 4.76-4.71 5.56-11.86 15.11-20.59zm-23.53 34.81a24.18 24.18 0 006.39 4.87c4.55-3.17 6.67-6.55 13.15-9.5 5.69-2.59 15.08-3.15 20.95-3.23a24.48 24.48 0 001.69-8.88c0-.42-.05-.84-.07-1.25a70.61 70.61 0 00-20.19 4.6c-9.24 3.72-13.72 10.26-21.92 13.39zm24.3-25.28c4.32 2.16 11 1 16.15-.44a24.1 24.1 0 00-4.11-6.84c-6.88 1.3-18.02 4.29-12.04 7.28z"/></g><path class="cls-1" d="M145.67 260.26c0 17.37-12.75 32.5-40.77 32.5-13.59 0-27.88-3.78-37.41-10.5l9-17.38c7.42 5.61 17.65 8.83 27.88 8.83 11.35 0 18.35-4.76 18.35-12.75 0-7.71-5-12.75-22.84-12.75h-25.1l5-55.2h59.82v18.21H98.73l-1.54 18.64h8c28.99 0 40.48 13.03 40.48 30.4zm51.27-68.92c-24.1 0-42 18.35-42 50.71s17.93 50.72 42 50.72 42-18.35 42-50.72-17.76-50.71-42-50.71zm0 82.23c-11.21 0-19.05-9.24-19.05-31.52s7.84-31.52 19.05-31.52 19.19 9.25 19.19 31.52-7.84 31.52-19.19 31.52zm93.96-82.83c-24.1 0-42 18.35-42 50.71s17.93 50.72 42 50.72 42-18.35 42-50.72-17.76-50.71-42-50.71zm0 82.23c-11.21 0-19-9.24-19-31.52s7.84-31.52 19-31.52 19.19 9.25 19.19 31.52S302.25 273 290.9 273z" id="Text"/><g id="Character"><path class="cls-2" d="M270.52 45.2a3.48 3.48 0 011.09-4.81l5.66-3.57a3.5 3.5 0 014.81 1.09 3.48 3.48 0 01-1.08 4.81l-5.66 3.57a3.48 3.48 0 01-4.82-1.09z"/><path class="cls-6" d="M267.44 69.7a40 40 0 00-9.85-9.82A146.77 146.77 0 00242 51.83l-3.24-18a61 61 0 008.28-9.8c2.92-4.7 2-7.87.13-11.13s-4.46-1.14-4.85.34a33.42 33.42 0 00-.52 4.76s-1.7-12-2.71-14.76-4.85-.11-4.52.81c0 0-1.15-3.41-3.55-3.45s-3.07 4-3.07 4-3.07-1.42-4.79.36-.9 6.24-.9 6.24-2.74 1-3.16 4.9-.08 10.7 1 12.57a20.5 20.5 0 011.44 2.78c-1.36 16.24-1.31 15.17-1.71 21.65-.28 4.56 2.71 15.16 7 19.56s19.71 12.24 19.71 12.24 15.97-4.15 20.9-15.2z"/><g clip-path="url(#clip-path-2)"><path class="cls-3" d="M246.54 84.9s16-4.15 20.9-15.2c0 0-.32-.47-.89-1.21L262.39 65a140.05 140.05 0 00-17.56 2.6c-8.79 1.95-15.62-2.28-18.22-12s-5-24.11-5-24.11c-1.36 16.24-1.31 15.17-1.71 21.65-.28 4.56 2.71 15.16 7 19.56s19.64 12.2 19.64 12.2z"/><path class="cls-8" d="M246.54 84.9s16-4.15 20.9-15.2c0 0-.32-.47-.89-1.21L262.39 65a140.05 140.05 0 00-17.56 2.6c-8.79 1.95-15.62-2.28-18.22-12s-5-24.11-5-24.11c-1.36 16.24-1.31 15.17-1.71 21.65-.28 4.56 2.71 15.16 7 19.56s19.64 12.2 19.64 12.2z"/></g><path class="cls-9" d="M267.44 69.7a40 40 0 00-9.85-9.82A146.77 146.77 0 00242 51.83l-3.24-18a61 61 0 008.28-9.8c2.92-4.7 2-7.87.13-11.13s-4.46-1.14-4.85.34a33.42 33.42 0 00-.52 4.76s-1.7-12-2.71-14.76-4.85-.11-4.52.81c0 0-1.15-3.41-3.55-3.45s-3.07 4-3.07 4-3.07-1.42-4.79.36-.9 6.24-.9 6.24-2.74 1-3.16 4.9-.08 10.7 1 12.57a20.5 20.5 0 011.44 2.78c-1.36 16.24-1.31 15.17-1.71 21.65-.28 4.56 2.71 15.16 7 19.56s19.71 12.24 19.71 12.24 15.97-4.15 20.9-15.2z"/><path class="cls-2" d="M240.78 44.83l-2-11a61 61 0 008.28-9.8c2.92-4.7 2-7.87.13-11.13s-4.46-1.14-4.85.34a33.42 33.42 0 00-.52 4.76s-1.72-12-2.73-14.76-4.85-.11-4.52.81c0 0-1.15-3.41-3.55-3.45s-3.07 4-3.07 4-3.07-1.42-4.79.36-.9 6.24-.9 6.24-2.74 1-3.16 4.9-.08 10.7 1 12.57a20.5 20.5 0 011.44 2.78c-.6 7.18-.92 11-1.13 13.53zM224.82 70a18.15 18.15 0 001.18 1.69c4.22-3.52 13.72-12 18-19.27-1.2-.38-2-.59-2-.59S233.19 63.38 224.82 70z"/><path class="cls-9" d="M241.84 18s-9.45-.36-10.45 7.62m3.18-21.57l.32 10.04m-6.94-9.46l.65 9.09m-6.34-2.49l1.02 5.67m13.51-3.28s-10.67 1.77-14.79 5.29"/><path class="cls-3" d="M234.31 76.65c3.49-3 3.21-9-.62-13.48s-9.34-5.59-12.86-3c1.19 4.59 3.37 9.75 6.07 12.5a38.51 38.51 0 006.33 4.7 6.08 6.08 0 001.08-.72z"/><path class="cls-9" d="M234.31 76.65c3.49-3 3.21-9-.62-13.48s-9.34-5.59-12.86-3c1.19 4.59 3.37 9.75 6.07 12.5a38.51 38.51 0 006.33 4.7 6.08 6.08 0 001.08-.72z"/><path class="cls-6" d="M227.49 88.35s-4.47.47-5.88 1.67-12.14 10.38-13.88 15.83 4.87 21.73 12.09 28 16.24 12.93 23.9 11.55 16.46-13.16 17.37-16.37S232 89 232 89s-2.1-2.11-4.51-.65z"/><g clip-path="url(#clip-path-3)"><path class="cls-3" d="M227.49 88.35s-.88.09-2 .3l1 1.68s-.92 9.49 5.58 20.22S250 128.12 249.7 132s1 9.11-8.78 8.46-20.16-17.24-23.74-25.37c-1.86-4.23-3.46-10.66-5.29-15.62a21.07 21.07 0 00-4.16 6.36c-1.74 5.45 4.87 21.73 12.09 28s16.24 12.93 23.9 11.55 16.46-13.16 17.37-16.37S232 89 232 89s-2.1-2.11-4.51-.65z"/><path class="cls-8" d="M227.49 88.35s-.88.09-2 .3l1 1.68s-.92 9.49 5.58 20.22S250 128.12 249.7 132s1 9.11-8.78 8.46-20.16-17.24-23.74-25.37c-1.86-4.23-3.46-10.66-5.29-15.62a21.07 21.07 0 00-4.16 6.36c-1.74 5.45 4.87 21.73 12.09 28s16.24 12.93 23.9 11.55 16.46-13.16 17.37-16.37S232 89 232 89s-2.1-2.11-4.51-.65z"/></g><path class="cls-9" d="M227.49 88.35s-4.47.47-5.88 1.67-12.14 10.38-13.88 15.83 4.87 21.73 12.09 28 16.24 12.93 23.9 11.55 16.46-13.16 17.37-16.37S232 89 232 89s-2.1-2.11-4.51-.65z"/><path class="cls-6" d="M265.67 66.53s-4.74-1.59-11.79 1.4-24.73 13.38-27.32 22.4c-1.71 5.94 17 33.63 28.69 38.18 3.15 1.23 6 2.55 12.43-2.68s19.91-19.83 23.44-26.21-2-11.19-3.85-14-16.64-21.2-21.6-19.09z"/><g clip-path="url(#clip-path-4)"><path class="cls-3" d="M291.16 99.53L279 103.4s-12.69 15-17.24 18.86-18.87-5.53-23.74-10.08l-1.45-1.34c5.83 7.91 13.08 15.48 18.7 17.67 3.15 1.23 6 2.55 12.43-2.68s19.89-19.83 23.42-26.21a.36.36 0 00.04-.09zm-6.33-1.34l6.56.86c2.91-6.13-2.29-10.7-4.12-13.45s-16.64-21.18-21.6-19.07a11.66 11.66 0 00-2.79-.41c-6 4.53-5.32 9.72.16 19.06s21.79 13.01 21.79 13.01z"/><path class="cls-6" d="M291.16 99.53L279 103.4s-12.69 15-17.24 18.86-18.87-5.53-23.74-10.08l-1.45-1.34c5.83 7.91 13.08 15.48 18.7 17.67 3.15 1.23 6 2.55 12.43-2.68s19.89-19.83 23.42-26.21a.36.36 0 00.04-.09zm-6.33-1.34l6.56.86c2.91-6.13-2.29-10.7-4.12-13.45s-16.64-21.18-21.6-19.07a11.66 11.66 0 00-2.79-.41c-6 4.53-5.32 9.72.16 19.06s21.79 13.01 21.79 13.01z" opacity=".5"/></g><path class="cls-9" d="M265.67 66.53s-4.74-1.59-11.79 1.4-24.73 13.38-27.32 22.4c-1.71 5.94 17 33.63 28.69 38.18 3.15 1.23 6 2.55 12.43-2.68s19.91-19.83 23.44-26.21-2-11.19-3.85-14-16.64-21.2-21.6-19.09z"/><rect class="cls-2" x="237.58" y="79.97" width="32.36" height="27.62" rx="5.89" transform="rotate(53.91 253.77 93.782)"/><path class="cls-2" d="M424.8 192.64c-14.95-39-52.34-38.57-85.34-38.16-11.37.14-22.11.27-32-1-33.37-4.22-42.91-38.53-43-39a2.38 2.38 0 10-4.61 1.21c.1.38 10.39 37.85 47 42.49 10.24 1.29 21.64 1.15 32.68 1 33-.41 67.07-.83 80.83 35.1a49.41 49.41 0 01-9 49.48c-10.24 11.79-24.77 16.56-39.85 13.1-14.23-3.26-28.29-7.76-41.89-12.11-22.51-7.21-45.78-14.65-70.48-16.73-42.34-3.56-71.81 17.07-105.89 40.95-6.86 4.8-13.95 9.77-21.38 14.71l-4.23 2.82c-21.08 14.08-42.89 28.64-67.56 31.27-19.17 2.05-38.68-6.94-48.55-22.36a37.69 37.69 0 01-5.29-28.75 31.75 31.75 0 0115-20.35c12.77-7.6 35.33-10.13 54.57-8.05l.33-4.75c-20.19-2.14-43.75.62-57.34 8.71a36.89 36.89 0 00-17.16 23.4A42.48 42.48 0 007.56 298c9.9 15.48 27.81 24.83 46.82 24.85a57.13 57.13 0 006.25-.32c25.84-2.76 49.14-18.32 69.7-32.05l4.21-2.81c7.49-5 14.6-10 21.48-14.78 33.33-23.34 62.11-43.52 102.76-40.1 24.17 2 47.18 9.39 69.43 16.51 13.69 4.39 27.85 8.92 42.27 12.23 16.86 3.86 33.08-1.46 44.52-14.63a54.21 54.21 0 009.8-54.26z"/><path class="cls-13" d="M258.68 83.48a3.25 3.25 0 11-3.25-3.25 3.25 3.25 0 013.25 3.25zm-8.82 7.42a3.25 3.25 0 11-3.24-3.25 3.25 3.25 0 013.24 3.25z"/><circle class="cls-6" cx="287.21" cy="66.22" r="26.5" transform="rotate(-48.59 287.214 66.225)"/><g clip-path="url(#clip-path-5)"><path class="cls-3" d="M307.35 49a27 27 0 00-3-3 26.47 26.47 0 01-42.62 27.37A26.49 26.49 0 10307.35 49z"/><path class="cls-8" d="M307.35 49a27 27 0 00-3-3 26.47 26.47 0 01-42.62 27.37A26.49 26.49 0 10307.35 49z"/></g><circle class="cls-9" cx="287.21" cy="66.22" r="26.5" transform="rotate(-48.59 287.214 66.225)"/><path class="cls-9" d="M310.75 84.55l7.71-6.6"/><path class="cls-1" d="M320.51 78.78a2 2 0 10-2.88-.22 2 2 0 002.88.22z"/><path class="cls-2" d="M301.28 92.55a3.49 3.49 0 01.39-4.92l5.08-4.35a3.5 3.5 0 014.92.38 3.5 3.5 0 01-.38 4.92l-5.09 4.35a3.5 3.5 0 01-4.92-.38z"/><path class="cls-6" d="M293 96.91s-10.29-2.77-14.34 5 .52 27 .52 27-7.52 12.22-9.43 13.55-7.29.74-12.59 3.45-3.54 5.47-2.14 6.4 5.73-1.85 7-1.75 1.13 2.39-3.87 7.58-7.32 5.34-5.86 7.75a3.71 3.71 0 004 1.79 2.56 2.56 0 001.41 3.06c2.05 1 2.93.23 2.93.23s-.2 2.61 1.71 3.42a8.13 8.13 0 004.59 0s1.81 2.11 3.64 1.76 6-5.44 9.3-9.78 16-19.77 21-29.23 2.63-19 1.61-24.83-5.65-14.11-9.48-15.4z"/><g clip-path="url(#clip-path-6)"><path class="cls-3" d="M302.47 112.27c-1-5.83-5.64-14.07-9.48-15.36l-.24-.06a56.07 56.07 0 014.11 26.71c-1.3 16.59-16.51 29.66-21.14 34.48-3.71 3.86-8.38 9.26-15.11 13.27a3.26 3.26 0 001.71 3 8.13 8.13 0 004.59 0s1.81 2.11 3.64 1.76 6-5.44 9.3-9.78 16-19.77 21-29.23 2.64-18.97 1.62-24.79z"/><path class="cls-8" d="M302.47 112.27c-1-5.83-5.64-14.07-9.48-15.36l-.24-.06a56.07 56.07 0 014.11 26.71c-1.3 16.59-16.51 29.66-21.14 34.48-3.71 3.86-8.38 9.26-15.11 13.27a3.26 3.26 0 001.71 3 8.13 8.13 0 004.59 0s1.81 2.11 3.64 1.76 6-5.44 9.3-9.78 16-19.77 21-29.23 2.64-18.97 1.62-24.79z"/></g><path class="cls-9" d="M293 96.91s-10.29-2.77-14.34 5 .52 27 .52 27-7.52 12.22-9.43 13.55-7.29.74-12.59 3.45-3.54 5.47-2.14 6.4 5.73-1.85 7-1.75 1.13 2.39-3.87 7.58-7.32 5.34-5.86 7.75a3.71 3.71 0 004 1.79 2.56 2.56 0 001.41 3.06c2.05 1 2.93.23 2.93.23s-.2 2.61 1.71 3.42a8.13 8.13 0 004.59 0s1.81 2.11 3.64 1.76 6-5.44 9.3-9.78 16-19.77 21-29.23 2.63-19 1.61-24.83-5.65-14.11-9.48-15.4z"/><path class="cls-9" d="M270.55 176.11c1.84-.35 6-5.44 9.3-9.78 1.87-2.46 6.75-8.47 11.54-14.94-3.21-11-12.71-14.29-16.94-15.19-1.91 2.86-3.86 5.6-4.71 6.19-1.91 1.32-7.29.74-12.59 3.45s-3.54 5.47-2.14 6.4 5.73-1.85 7-1.75 1.13 2.39-3.87 7.58-7.32 5.34-5.86 7.75a3.71 3.71 0 004 1.79 2.56 2.56 0 001.41 3.06c2.05 1 2.93.23 2.93.23s-.2 2.61 1.71 3.42a8.13 8.13 0 004.59 0s1.8 2.14 3.63 1.79zm-14.28-8.5a33.52 33.52 0 0010-7.93m-5.66 11.22a32.66 32.66 0 0010.48-8.05m-4.18 11.5s5.76-4.31 8.5-7.88"/><path class="cls-2" d="M302.93 131.86c.21-.77.38-1.52.51-2.28-8.38-5.59-18.94-3.75-24.57-2.12.18.87.3 1.38.3 1.38l-.87 1.4c13.47-3.24 20.88-.86 24.63 1.62z"/><path class="cls-13" d="M297.09 137a10.35 10.35 0 002.62 2.17c.41-.7.8-1.39 1.15-2a28.75 28.75 0 002.92-16.29 9.56 9.56 0 00-5.77 2.27 9.85 9.85 0 00-.92 13.85z"/><path class="cls-6" d="M202.34 100.5s4.16 12 9.51 12.9 12.79-8.2 14.3-15-3.8-12.28-11.48-19.12-18.69-10.82-28-5.63-23.08 20-23.08 20-8.6-7.56-13.18-3.65 1.39 15.87 5.6 20.8 11.86 12.09 19.22 10.37 13.21-15.56 18-19.62 8.06-2.28 9.11-1.05z"/><g clip-path="url(#clip-path-7)"><path class="cls-3" d="M214.25 103.4c-8.13-3.91-5.85-13.66-14-16.26s-7.48 2.92-14 13.33-18.54 9.76-26.67 7.16c-2.75-.89-5.34-1.91-7.58-2.89a34.58 34.58 0 004 6.11c4.21 4.92 11.86 12.09 19.22 10.37s13.21-15.56 18-19.62 8.06-2.33 9.11-1.1c0 0 4.16 12 9.51 12.9s12.79-8.2 14.3-15a10.33 10.33 0 00.19-3.4l-.38-.08s-3.57 12.38-11.7 8.48z"/><path class="cls-8" d="M214.25 103.4c-8.13-3.91-5.85-13.66-14-16.26s-7.48 2.92-14 13.33-18.54 9.76-26.67 7.16c-2.75-.89-5.34-1.91-7.58-2.89a34.58 34.58 0 004 6.11c4.21 4.92 11.86 12.09 19.22 10.37s13.21-15.56 18-19.62 8.06-2.33 9.11-1.1c0 0 4.16 12 9.51 12.9s12.79-8.2 14.3-15a10.33 10.33 0 00.19-3.4l-.38-.08s-3.57 12.38-11.7 8.48z"/></g><path class="cls-9" d="M202.34 100.5s4.16 12 9.51 12.9 12.79-8.2 14.3-15-3.8-12.28-11.48-19.12-18.69-10.82-28-5.63-23.08 20-23.08 20-8.6-7.56-13.18-3.65 1.39 15.87 5.6 20.8 11.86 12.09 19.22 10.37 13.21-15.56 18-19.62 8.06-2.28 9.11-1.05z"/><path class="cls-9" d="M176.11 81.6c-6.64 5.82-12.48 12.1-12.48 12.1s-8.6-7.56-13.18-3.65 1.39 15.87 5.6 20.8 11.86 12.09 19.22 10.37c6.64-1.56 12-13 16.52-18.16a89.06 89.06 0 01-15.68-21.46zm22.12-10.16a20.29 20.29 0 00-2.46-.14 69.52 69.52 0 011.64 28 5.62 5.62 0 012.45-.11c.6-7.12 1.01-18.87-1.63-27.75z"/><path class="cls-13" d="M203.89 87a8.8 8.8 0 111-12.41 8.8 8.8 0 01-1 12.41z"/><path class="cls-9" d="M175.27 121.22a11 11 0 004.66-2.69c-4.71.79-13.41.53-21.32-9-7.7-9.25-7.83-16.44-7.06-20.21a4.14 4.14 0 00-1.1.69c-4.57 3.91 1.39 15.87 5.6 20.8s11.86 12.13 19.22 10.41z"/><path class="cls-6" d="M226.41 143s12.17 3.58 16-.25 4.4-15.43-3.88-20.34c-6-3.54-12.21-4-22.24-1.77s-19.66 8.94-20.83 19.5 2.91 30.42 2.91 30.42-11.16 2.61-10.64 8.6 13.73 8.09 20.19 7.53 16.73-2.63 19.6-9.63-5-19.78-5.53-26 2.81-7.91 4.42-8.06z"/><g clip-path="url(#clip-path-8)"><path class="cls-3" d="M226.41 143s12.17 3.58 16-.25c2.5-2.48 3.59-8.26 1.78-13.34s1 5.2-6.18 6.5-18.87-1.3-24.07 5.21 2.27 19.84 2.92 28.62-1.3 11.71-10.08 12.68-16.62-5.29-18.44-1.48c2.69 4.63 13.84 6.25 19.61 5.75 6.45-.57 16.73-2.63 19.6-9.63s-5-19.78-5.53-26 2.78-7.91 4.39-8.06z"/><path class="cls-8" d="M226.41 143s12.17 3.58 16-.25c2.5-2.48 3.59-8.26 1.78-13.34s1 5.2-6.18 6.5-18.87-1.3-24.07 5.21 2.27 19.84 2.92 28.62-1.3 11.71-10.08 12.68-16.62-5.29-18.44-1.48c2.69 4.63 13.84 6.25 19.61 5.75 6.45-.57 16.73-2.63 19.6-9.63s-5-19.78-5.53-26 2.78-7.91 4.39-8.06z"/></g><path class="cls-9" d="M226.41 143s12.17 3.58 16-.25 4.4-15.43-3.88-20.34c-6-3.54-12.21-4-22.24-1.77s-19.66 8.94-20.83 19.5 2.91 30.42 2.91 30.42-11.16 2.61-10.64 8.6 13.73 8.09 20.19 7.53 16.73-2.63 19.6-9.63-5-19.78-5.53-26 2.81-7.91 4.42-8.06z"/><path class="cls-9" d="M195.78 153.38c.88 8.78 2.61 17.19 2.61 17.19s-11.16 2.61-10.64 8.6 13.73 8.09 20.19 7.53 16.73-2.63 19.6-9.63c2.59-6.3-3.54-17.31-5.18-24a89 89 0 01-26.58.31zm4.59-23.9a20.2 20.2 0 00-1.55 1.91 69.62 69.62 0 0123.71 14.91 5.71 5.71 0 011.34-2.06c-5.41-4.6-14.74-11.76-23.5-14.76z"/><circle class="cls-13" cx="207.55" cy="134.67" r="8.8" transform="rotate(-22.91 207.529 134.658)"/><path class="cls-9" d="M227.54 177.07a11 11 0 00.53-5.35C226 176 220.7 183 208.38 183.87c-12 .9-17.93-3.17-20.55-6a4.58 4.58 0 00-.08 1.29c.53 6 13.73 8.09 20.19 7.53s16.73-2.62 19.6-9.62z"/><path d="M296.15 55.07A93.68 93.68 0 01289 44.16a22.59 22.59 0 1019.5 24.22 90.9 90.9 0 01-12.35-13.31z" stroke="#263238" stroke-linecap="round" stroke-linejoin="round" stroke-width="1.19" fill="#263238"/><path class="cls-6" d="M298.34 75.59a7.26 7.26 0 11.45-9.91 7 7 0 01-.45 9.91zm-7.43-16.76a2.16 2.16 0 01-2.81-3.28 2.16 2.16 0 112.81 3.28z"/><path class="cls-1" transform="rotate(5.62 73.656 235.739)" d="M70.44 230.96h6.45v9.32h-6.45z"/><text transform="matrix(.74 -.01 .01 1 116.33 322.89)" font-size="21.61" font-family="AKbalthomSuperhero,AKbalthom Superhero" fill="#263238">Unknown Error</text></g></g></svg>