<svg xmlns="http://www.w3.org/2000/svg" viewBox="0 0 24 24"><path d="M11.7 1C5.6 1 .7 6 .7 12s4.9 11 11 11c6 0 11-4.9 11-11s-5-11-11-11zM9.4 7.2h2.2V5H13v2.2h2.2v1.4H13v2.1h-1.4V8.6H9.4V7.2zm-.7 12.9c-.8 0-1.4-.6-1.4-1.4 0-.8.6-1.4 1.4-1.4.8 0 1.4.7 1.4 1.4.1.8-.6 1.4-1.4 1.4zm7.2 0c-.8 0-1.4-.6-1.4-1.4 0-.8.6-1.4 1.4-1.4.8 0 1.4.7 1.4 1.4.1.8-.6 1.4-1.4 1.4zm-6.9-5h8.3v1.4H8.7c-.8 0-1.4-.6-1.4-1.4 0-.3.1-.5.2-.7l1-1.8-2.7-5.4H4.4V5.7h2.3l1.4 2.9L9.7 12l.1.2h5l2-3.6.8-1.4 1.3.7-2.8 5.1c-.2.4-.7.7-1.3.7H9.5l-.7 1.2v.1s.1.1.2.1z"/></svg>