<svg xmlns="http://www.w3.org/2000/svg" width="279.979" height="279.979" viewBox="0 0 259 259"><defs><style>.cls-2{fill:#fff}.cls-2,.cls-3,.cls-5{fill-rule:evenodd}.cls-5{fill:#00aeef}</style></defs><g id="building_small" data-name="building small"><circle cx="129.5" cy="129.5" r="129.5" fill="#00bff3"/><path id="building_small-2" data-name="building small" class="cls-2" d="M50 222v-96l33-14v78s-.257 29.974-12 31-21 1-21 1z" transform="translate(-5 -8)"/><rect id="Rounded_Rectangle_1_copy_9" data-name="Rounded Rectangle 1 copy 9" x="55" y="123" width="9" height="25" rx="4.5" ry="4.5"/><rect id="Rounded_Rectangle_1_copy_10" data-name="Rounded Rectangle 1 copy 10" x="55" y="159" width="9" height="25" rx="4.5" ry="4.5"/></g><g id="building_big" data-name="building big"><path id="building_big-2" data-name="building big" class="cls-2" d="M81 223V46l49-23 87 39v163z" transform="translate(-5 -8)"/><path class="cls-3" d="M128 29l4-2 .227 169.477h-4zm4-2l-1-5 88 36-5 2zm82 33l5-2-.812 167h-4zM81 44l4 4 .248 172.271h-4zm50-22l1 5-47 21-4-3.759z" transform="translate(-5 -8)"/><rect id="Rounded_Rectangle_1" data-name="Rounded Rectangle 1" x="86" y="43" width="9" height="25" rx="4.5" ry="4.5"/><rect id="Rounded_Rectangle_1_copy" data-name="Rounded Rectangle 1 copy" x="103" y="36" width="9" height="25" rx="4.5" ry="4.5"/><rect id="Rounded_Rectangle_1_copy_3" data-name="Rounded Rectangle 1 copy 3" x="144" y="43" width="9" height="25" rx="4.5" ry="4.5"/><rect id="Rounded_Rectangle_1_copy_4" data-name="Rounded Rectangle 1 copy 4" x="167" y="56" width="9" height="25" rx="4.5" ry="4.5"/><rect id="Rounded_Rectangle_1_copy_5" data-name="Rounded Rectangle 1 copy 5" x="190" y="65" width="9" height="25" rx="4.5" ry="4.5"/><rect id="Rounded_Rectangle_1_copy_6" data-name="Rounded Rectangle 1 copy 6" x="144" y="82" width="9" height="25" rx="4.5" ry="4.5"/><rect id="Rounded_Rectangle_1_copy_6-2" data-name="Rounded Rectangle 1 copy 6" x="167" y="95" width="9" height="25" rx="4.5" ry="4.5"/><rect id="Rounded_Rectangle_1_copy_6-3" data-name="Rounded Rectangle 1 copy 6" x="190" y="104" width="9" height="25" rx="4.5" ry="4.5"/><rect id="Rounded_Rectangle_1_copy_7" data-name="Rounded Rectangle 1 copy 7" x="190" y="143" width="9" height="25" rx="4.5" ry="4.5"/><rect id="Rounded_Rectangle_1_copy_8" data-name="Rounded Rectangle 1 copy 8" x="167" y="131" width="9" height="25" rx="4.5" ry="4.5"/><rect id="Rounded_Rectangle_1_copy_2" data-name="Rounded Rectangle 1 copy 2" x="86" y="84" width="9" height="25" rx="4.5" ry="4.5"/><rect id="Rounded_Rectangle_1_copy_2-2" data-name="Rounded Rectangle 1 copy 2" x="103" y="77" width="9" height="25" rx="4.5" ry="4.5"/></g><g id="person"><circle cx="124.5" cy="145.5" r="28.5" fill="#00aeef"/><path id="Shape_3_copy" data-name="Shape 3 copy" class="cls-5" d="M65 223s4.646-48.988 64-41c5.4 18.541 0 42 0 42z" transform="translate(-5 -8)"/><path id="Shape_3_copy_2" data-name="Shape 3 copy 2" class="cls-5" d="M192 223s-4.618-49.131-63.608-41.119c-5.367 18.6 0 42.122 0 42.122z" transform="translate(-5 -8)"/><path class="cls-2" d="M130 182l-5 9 3 7-5 25h13l-4-25 3-7z" transform="translate(-5 -8)"/></g><path class="cls-3" d="M42 117l3 3v93h-3v-96z"/><path id="Shape_4_copy" data-name="Shape 4 copy" class="cls-3" d="M50 128l-3-3 34-13v4z" transform="translate(-5 -8)"/><path class="cls-3" d="M42 217v-5h171v5H42z"/></svg>