<svg xmlns="http://www.w3.org/2000/svg" width="24" height="24"><path d="M6 12c0 2.206 1.794 4 4 4 1.761 0 3.242-1.151 3.775-2.734l2.224-1.291L16 12a6 6 0 11-6-6 5.97 5.97 0 012.975.794l-2.21 1.283A4.017 4.017 0 0010 8c-2.206 0-4 1.794-4 4zm4-2a2 2 0 102 2l-.002-.015 3.36-1.95c.976-.565 2.704-.336 3.711.159L24 7.331l-3.158-1.569.169-3.632L16.066 5c-.07 1.121-.734 2.736-1.705 3.301l-3.383 1.964A1.99 1.99 0 0010 10zm7.995 1.911L18 12c0 4.411-3.589 8-8 8s-8-3.589-8-8 3.589-8 8-8c1.475 0 2.853.408 4.041 1.107.334-.586.428-1.544.146-2.18A9.953 9.953 0 0010 2C4.477 2 0 6.477 0 12s4.477 10 10 10c5.233 0 9.521-4.021 9.957-9.142-.301-.483-1.066-1.061-1.962-.947z"/></svg>