<svg width="21" height="24" fill="none" xmlns="http://www.w3.org/2000/svg"><path fill-rule="evenodd" clip-rule="evenodd" d="M16.896 23.596H3.553C1.591 23.596 0 22.036 0 20.114V3.481C0 1.56 1.59 0 3.553 0h13.344c1.962 0 3.552 1.559 3.552 3.481v16.633c0 1.923-1.59 3.482-3.553 3.482zM18.543 8.63a4.096 4.096 0 00-.956-1.437c-.423-.414-.95-.745-1.582-.993-.632-.247-1.365-.382-2.2-.403-.307 0-.648.03-1.02.088-.375.06-.734.13-1.08.21a9.733 9.733 0 00-.923.259c-.27.091-.448.17-.536.234a2.182 2.182 0 00-.255-.194 3.461 3.461 0 00-.486-.266 3.831 3.831 0 00-.692-.235 3.67 3.67 0 00-.873-.096c-.88 0-1.706.12-2.48.363a5.573 5.573 0 00-2.043 1.138c-.588.517-1.052 1.184-1.393 2.002-.34.818-.51 1.803-.51 2.955 0 .807.14 1.547.42 2.22.28.672.648 1.245 1.104 1.72.455.473 1.209.919 1.785 1.182a4.146 4.146 0 001.739.396c.351 0 .626-.03.824-.089.197-.059.351-.126.461-.202.022-.01.041-.035.058-.072a.938.938 0 00.04-.113c.012-.038.012-.067 0-.09-.01-.02-.038-.02-.082 0a.208.208 0 01-.09.017h-.09a3.11 3.11 0 01-1.426-.347c-.456-.232-1.097-.659-1.448-1.127-.352-.468-.635-1.05-.849-1.744-.214-.694-.321-1.51-.321-2.445 0-.85.101-1.607.305-2.269.203-.662.47-1.216.799-1.663.33-.446.703-.785 1.12-1.017.418-.231.84-.347 1.27-.347.482 0 .905.191 1.268.573.362.382.593.928.692 1.639.055.333.082.77.082 1.307v1.744c0 .743-.014 1.448-.04 2.115-.028.668-.14 3.578-.179 4.089-.007.091 1.23.044 2.11.113.01-1 .043-3.712.054-4.573.01-1.173.022-2.174.033-3.003.01-.829.043-1.432.099-1.808.033-.28.112-.555.239-.824a2.63 2.63 0 01.494-.718c.203-.21.442-.38.717-.509.274-.129.57-.194.89-.194 1.043 0 1.815.447 2.315 1.34.5.894.75 2.142.75 3.746 0 .861-.086 1.655-.256 2.381-.17.727-.404 1.357-.7 1.89-.297.532-.643.95-1.038 1.25-.396.302-.82.453-1.27.453h-.131a.381.381 0 01-.132-.033c-.033-.01-.066.003-.099.04a.24.24 0 00-.058.138.291.291 0 00.025.153c.022.049.066.073.132.073a5.01 5.01 0 002.175-.492 5.427 5.427 0 001.83-1.43c.526-.623.947-1.385 1.26-2.284.313-.898.47-1.924.47-3.075 0-.614-.108-1.192-.322-1.736z" fill="#F2C94C"/></svg>