<svg xmlns="http://www.w3.org/2000/svg" viewBox="0 0 448 512"><g data-name="Layer 2"><path d="M226.82 206.43l34.3 69.5 76.7 11.15-55.5 54.1 13.1 76.39-68.6-36.07-68.6 36.07 13.1-76.39-55.5-54.1 76.7-11.15 34.3-69.5z" data-name="Layer 4"/><path d="M400 64h-48V12a12 12 0 00-12-12h-40a12 12 0 00-12 12v52H160V12a12 12 0 00-12-12h-40a12 12 0 00-12 12v52H48a48 48 0 00-48 48v352a48 48 0 0048 48h352a48 48 0 0048-48V112a48 48 0 00-48-48zm0 394a6 6 0 01-6 6H54a6 6 0 01-6-6V160h352z" data-name="Layer 3"/></g></svg>