<svg width="100" height="152" fill="none" xmlns="http://www.w3.org/2000/svg"><path fill-rule="evenodd" clip-rule="evenodd" d="M57.765 148.026l7.487-95.885 2.494 93.146v5.479l-9.98-2.74zm2.862-39.055S14.76 111.656 15.75 67.975c38.481-14.356 44.877 40.996 44.877 40.996z" fill="#52AC62"/><path fill-rule="evenodd" clip-rule="evenodd" d="M60.627 108.971S42.255 87.963 15.75 67.975c26.267 16.784 44.877 40.996 44.877 40.996zM32.754 80.447s-1.839-5.722-5.194-11.786c3.531 5.366 5.194 11.786 5.194 11.786zm8.397 7.756s.637-6.026.047-13.089c1.026 6.521-.047 13.09-.047 13.09zm8.564 7.955s1.561-3.927 2.046-8.892c.037 4.716-2.046 8.892-2.046 8.892zM34.5 83.896s-5.393-1.163-11.306-3.903C28.506 83.02 34.5 83.896 34.5 83.896zm9.549 8.384s-5.498-.167-11.753-1.794c5.708 2.02 11.753 1.794 11.753 1.794zm6.817 6.95s-3.546.714-7.92.357c4.117.761 7.92-.357 7.92-.357z" fill="#fff"/><path fill-rule="evenodd" clip-rule="evenodd" d="M66.671 94.301s4.758-34.644 24.59-27.129c1.54 30.945-24.59 27.13-24.59 27.13z" fill="#52AC62"/><path fill-rule="evenodd" clip-rule="evenodd" d="M66.671 94.301s11.997-10.45 24.59-27.129c-11.097 16.999-24.59 27.13-24.59 27.13zm16.672-16.375s2.855-.484 6.064-2.047c-2.914 1.802-6.064 2.047-6.064 2.047zm-4.64 5.064s2.67 1.41 5.975 2.065c-3.114-.245-5.975-2.065-5.975-2.065zm-4.753 5.156s1.591 1.774 3.797 2.907c-2.16-.704-3.797-2.907-3.797-2.907zm7.59-9.452s1.234-3.843 3.258-7.831c-2.077 3.494-3.258 7.831-3.258 7.831zm-5.078 5.826s.793-4.077 2.352-8.493c-1.667 3.947-2.352 8.493-2.352 8.493zm-4.065 4.008s.135-2.757.869-5.964c-.884 2.953-.87 5.964-.87 5.964z" fill="#fff"/><path fill-rule="evenodd" clip-rule="evenodd" d="M67.695 28.15s-2.584.813-4.468-.918c-1.893-1.738-16.668-14.708-9.112-23.584 8.368-7.775 11.34 3.887 12.614 4.918 1.275 1.03 6.232-9.995 14.606-4.026 9.936 10.594-12.77 23.66-13.64 23.61zm-7.687 9.015s3.223.234 4.696 4.749c.866 2.656.303 17.516-9.004 20.432-9.092 1.681-3.8-8.576-3.877-9.988-.078-1.412-9.254 4.419-10.231-4.248.914-12.925 17.98-11.417 18.416-10.945z" fill="red"/><path fill-rule="evenodd" clip-rule="evenodd" d="M66.869 40.459s1.224-3.556 5.563-3.048c2.866.334 16.417 5.047 16.897 14.846-.62 9.217-8.918 1.026-10.254.669-1.336-.357 1.894 10.205-6.429 8.5-11.84-4.814-6.323-20.692-5.777-20.967zm-6.36-7.617s2.517-1.821 1.121-5.92c-.821-2.409-9.866-13.125-19.208-10.523-8.453 3.407 1.825 8.296 2.577 9.38.751 1.085-10.167 1.464-5.966 8.382 8.217 9.104 21.389-.746 21.476-1.319z" fill="red"/><path fill-rule="evenodd" clip-rule="evenodd" d="M70.808 30.481s-1.63 3.332 1.83 5.933c2.285 1.717 15.295 7.642 22.542 1.087 6.05-6.897-5.655-6.798-6.86-7.458-1.207-.66 8.545-5.878 1.392-10.351-11.858-4.688-19.1 10.226-18.904 10.79z" fill="red"/><path fill-rule="evenodd" clip-rule="evenodd" d="M43.19 151.191l-11.653-61.09 18.093 57.026.962 3.391-7.401.673zm-4.876-24.839S6.988 138.897 0 111.641c24.157-18.012 38.314 14.711 38.314 14.711z" fill="#52AC62"/><path fill-rule="evenodd" clip-rule="evenodd" d="M38.314 126.352S21.886 117.716 0 111.641c21.16 4.15 38.314 14.711 38.314 14.711zm-24.335-11.03s-2.28-3.104-5.67-6.058c3.39 2.481 5.67 6.058 5.67 6.058zm7.185 2.805s-.617-3.88-2.267-8.108c1.858 3.79 2.267 8.108 2.267 8.108zm7.334 2.889s.393-2.8-.143-5.986c.854 2.908.143 5.986.143 5.986zm-12.702-3.976s-3.944.561-8.524.269c4.215.613 8.524-.269 8.524-.269zm8.093 2.92s-3.84 1.203-8.463 1.681c4.312-.105 8.463-1.681 8.463-1.681zm5.947 2.683s-2.333 1.284-5.427 2.1c2.986-.506 5.427-2.1 5.427-2.1z" fill="#fff"/><path fill-rule="evenodd" clip-rule="evenodd" d="M44.45 130.394s-5.586-11.367 8.968-18.146c8.692 7.589-8.968 18.146-8.968 18.146z" fill="#52AC62"/><path fill-rule="evenodd" clip-rule="evenodd" d="M44.45 130.394s5.07-8.109 8.968-18.146c-2.862 9.46-8.968 18.146-8.968 18.146zm6.583-11.763s1.706-1.394 3.368-3.233c-1.414 1.772-3.368 3.233-3.368 3.233zm-1.706 3.409s2.06-.807 4.336-2.095c-2.052 1.314-4.336 2.095-4.336 2.095zm-1.755 3.484s1.46-.23 3.152-.905c-1.556.769-3.152.905-3.152.905zm2.5-5.888s-.168-1.575.132-3.538c-.457 1.854-.133 3.538-.133 3.538zm-1.797 3.806s-.508-1.441-.61-3.312c-.084 1.794.61 3.312.61 3.312zm-1.601 2.872s-.6-.797-.93-1.979c.17 1.181.93 1.979.93 1.979z" fill="#fff"/><path fill-rule="evenodd" clip-rule="evenodd" d="M29.017 74.679s-1.65 1.117-3.26.493c-1.617-.626-14.139-5.143-10.46-12.427 4.437-6.794 8.544-.286 9.61.05 1.065.334 2.564-7.662 9.418-5.957 8.75 4.195-4.696 17.666-5.308 17.841zM25.27 82.08s2.276-.62 4.09 1.824c1.068 1.437 3.287 10.763-2.652 14.775-6.008 3.199-4.141-4.403-4.443-5.258-.301-.855-5.64 4.93-7.84-.2-1.636-8.213 10.46-11.328 10.846-11.14z" fill="red"/><path fill-rule="evenodd" clip-rule="evenodd" d="M30.607 82.49s.224-2.49 3.32-3.205c2.046-.473 12.27-.773 14.323 5.174 1.188 5.848-6.003 2.75-6.992 2.846-.988.097 3.106 5.865-2.963 6.785-9.055-.169-8.018-11.3-7.688-11.6zm-5.748-3.202s1.425-1.724-.263-3.929c-.992-1.296-9.145-5.777-15.166-1.95-5.26 4.112 2.724 4.698 3.436 5.19.711.493-6.792 3.318-2.665 6.6 7.297 3.681 14.698-5.536 14.658-5.911z" fill="red"/><path fill-rule="evenodd" clip-rule="evenodd" d="M31.585 75.384s-.545 2.447 2.31 3.235c1.886.52 11.947 1.098 15.82-4.676 2.982-5.702-5.116-2.865-6.068-2.986-.951-.122 4.893-5.664-.852-6.734-9.045-.085-11.446 10.858-11.21 11.16z" fill="red"/><path fill-rule="evenodd" clip-rule="evenodd" d="M75.858 151s.934-10.364 3.392-14.975C86.697 122.058 95.496 117.401 96.159 89c-2.276 20.183-4.442 27.706-18.167 45.679-2.79 3.654-3.788 16.294-3.788 16.294l1.655.027zm3.016-17.412s-5.328-5.872-1.95-17.492c-4.195 9.378 1.067 18.583 1.067 18.583l.883-1.091zm-2.121-4.013s4.122-.621 3.639-6.571c-2.85 2.157-3.64 6.571-3.64 6.571zM72 122.247s-.162 5.102 3.356 3.834c-.59-2.886-3.356-3.834-3.356-3.834zm10.69 7.867s11.085.5 15.15-12.447c-3.282 14.177-16.23 14.197-16.23 14.197l1.08-1.75zm5.128-1.075s3.878-2.163 2.123-7.586c-2.308 3.123-2.123 7.586-2.123 7.586zm4.253 6.846s.51-5.483-4.004-5.621c.925 4.015 4.004 5.621 4.004 5.621zm.844-23.344s6.657 1.996 7.084-8.015c-4.95 1.424-7.084 8.015-7.084 8.015zm-3.964 6.169s-6.744-2.877-2.434-12.501c3.653 4.846 2.434 12.501 2.434 12.501zm4.895-14.58s-1.154-3.763-2.389-4.15c1.054.035 2.491 3.584 2.491 3.584l-.102.566z" fill="#52AC62"/></svg>