<svg width="86" height="151" fill="none" xmlns="http://www.w3.org/2000/svg"><path fill-rule="evenodd" clip-rule="evenodd" d="M44.365 147.997l7.902-96.512 2.633 93.754v5.515l-10.535-2.757zm3.021-39.311S-1.028 111.389.016 67.422c40.619-14.45 47.37 41.264 47.37 41.264z" fill="#52AC62"/><path fill-rule="evenodd" clip-rule="evenodd" d="M47.385 108.686S27.993 87.541.016 67.422c27.726 16.894 47.37 41.264 47.37 41.264zm-29.42-28.71s-1.942-5.76-5.483-11.864c3.727 5.402 5.482 11.864 5.482 11.864zm8.863 7.807s.672-6.066.05-13.175c1.083 6.564-.05 13.175-.05 13.175zm9.04 8.007s1.647-3.953 2.16-8.95c.038 4.746-2.16 8.95-2.16 8.95zm-16.06-12.343s-5.694-1.17-11.935-3.929c5.607 3.048 11.935 3.929 11.935 3.929zm10.079 8.439s-5.803-.168-12.406-1.805c6.025 2.033 12.405 1.805 12.405 1.805zm7.195 6.995s-3.743.72-8.359.36c4.344.766 8.359-.36 8.359-.36z" fill="#fff"/><path fill-rule="evenodd" clip-rule="evenodd" d="M53.765 93.92s5.022-34.87 25.956-27.306c1.626 31.147-25.956 27.307-25.956 27.307z" fill="#52AC62"/><path fill-rule="evenodd" clip-rule="evenodd" d="M53.765 93.92S66.43 83.403 79.721 66.615c-11.714 17.11-25.956 27.307-25.956 27.307zm17.598-16.48s3.014-.488 6.401-2.06c-3.076 1.813-6.4 2.06-6.4 2.06zm-4.898 5.096s2.82 1.42 6.307 2.079c-3.287-.247-6.307-2.079-6.307-2.079zm-5.016 5.19s1.679 1.786 4.007 2.926c-2.28-.708-4.007-2.926-4.007-2.926zm8.01-9.513s1.303-3.87 3.44-7.883c-2.192 3.517-3.44 7.883-3.44 7.883zm-5.36 5.863s.838-4.103 2.484-8.548c-1.76 3.973-2.483 8.548-2.483 8.548zm-4.29 4.035s.143-2.775.917-6.004c-.933 2.973-.917 6.004-.917 6.004z" fill="#fff"/><path fill-rule="evenodd" clip-rule="evenodd" d="M54.846 27.336s-2.728.818-4.716-.923c-1.998-1.75-17.594-14.805-9.618-23.74 8.833-7.824 11.97 3.914 13.315 4.951 1.346 1.038 6.577-10.06 15.417-4.052 10.487 10.663-13.48 23.815-14.398 23.764zm-8.114 9.074s3.402.236 4.957 4.78c.914 2.674.32 17.63-9.504 20.566-9.596 1.693-4.011-8.632-4.093-10.053-.081-1.42-9.767 4.448-10.798-4.276.965-13.01 18.977-11.492 19.438-11.017z" fill="red"/><path fill-rule="evenodd" clip-rule="evenodd" d="M53.974 39.726s1.292-3.579 5.872-3.068c3.025.336 17.329 5.08 17.836 14.943-.656 9.277-9.414 1.032-10.824.674-1.41-.36 2 10.272-6.786 8.556-12.498-4.846-6.674-20.828-6.098-21.105zm-6.713-7.666s2.657-1.834 1.184-5.959C47.578 23.676 38.03 12.89 28.169 15.51c-8.922 3.43 1.927 8.35 2.72 9.442.794 1.092-10.73 1.473-6.297 8.436 8.674 9.163 22.577-.75 22.67-1.328z" fill="red"/><path fill-rule="evenodd" clip-rule="evenodd" d="M58.133 29.683s-1.721 3.354 1.93 5.972c2.413 1.728 16.145 7.691 23.795 1.094 6.385-6.942-5.97-6.843-7.242-7.507-1.273-.664 9.02-5.917 1.47-10.42-12.517-4.717-20.16 10.294-19.953 10.861z" fill="red"/><path fill-rule="evenodd" clip-rule="evenodd" d="M62.72 151s.901-9.528 3.272-13.767C73.172 124.392 81.654 120.11 82.294 94c-2.195 18.555-4.283 25.472-17.518 41.995-2.69 3.36-3.653 14.98-3.653 14.98l1.596.025zm2.909-16.008s-5.138-5.398-1.881-16.082c-4.045 8.622 1.03 17.085 1.03 17.085l.85-1.003zm-2.046-3.689s3.975-.571 3.51-6.042c-2.749 1.984-3.51 6.042-3.51 6.042zm-4.582-6.737s-.156 4.691 3.236 3.525c-.57-2.653-3.236-3.525-3.236-3.525zm10.308 7.232s10.69.46 14.61-11.443c-3.166 13.034-15.652 13.053-15.652 13.053l1.042-1.61zm4.945-.988s3.74-1.989 2.048-6.974c-2.226 2.871-2.048 6.974-2.048 6.974zm4.101 6.294s.492-5.04-3.86-5.168c.891 3.692 3.86 5.168 3.86 5.168zm.814-21.461s6.42 1.835 6.831-7.369c-4.772 1.309-6.83 7.369-6.83 7.369zm-3.822 5.671s-6.504-2.645-2.348-11.493c3.523 4.455 2.348 11.493 2.348 11.493zm4.72-13.404s-1.113-3.46-2.304-3.815c1.017.032 2.402 3.295 2.402 3.295l-.099.52z" fill="#52AC62"/></svg>