<svg width="95" height="152" fill="none" xmlns="http://www.w3.org/2000/svg"><path fill-rule="evenodd" clip-rule="evenodd" d="M42.138 148.401l7.504-96.775 2.501 94.01v5.53l-10.005-2.765zm2.868-39.419S-.976 111.693.016 67.606c38.578-14.49 44.99 41.376 44.99 41.376z" fill="#52AC62"/><path fill-rule="evenodd" clip-rule="evenodd" d="M45.006 108.982S26.587 87.78.016 67.606c26.333 16.94 44.99 41.376 44.99 41.376zM17.062 80.194s-1.843-5.776-5.207-11.895c3.54 5.416 5.207 11.895 5.207 11.895zm8.42 7.829s.638-6.083.046-13.211c1.03 6.581-.047 13.21-.047 13.21zm8.585 8.028s1.565-3.963 2.051-8.974c.037 4.758-2.051 8.974-2.051 8.974zM18.813 83.675s-5.407-1.174-11.335-3.94c5.326 3.057 11.335 3.94 11.335 3.94zm9.574 8.461s-5.512-.167-11.783-1.81c5.723 2.04 11.783 1.81 11.783 1.81zm6.833 7.015s-3.555.722-7.938.362c4.125.767 7.938-.362 7.938-.362z" fill="#fff"/><path fill-rule="evenodd" clip-rule="evenodd" d="M50.577 136.615s8.506-49.14 43.97-38.48c2.752 43.891-43.97 38.48-43.97 38.48z" fill="#52AC62"/><path fill-rule="evenodd" clip-rule="evenodd" d="M50.577 136.615s21.452-14.825 43.97-38.48c-19.844 24.109-43.97 38.48-43.97 38.48zm29.81-23.227s5.106-.687 10.843-2.905c-5.209 2.557-10.842 2.905-10.842 2.905zm-8.297 7.182s4.776 2 10.685 2.93c-5.568-.348-10.685-2.93-10.685-2.93zm-8.498 7.314s2.845 2.517 6.788 4.123c-3.861-.998-6.788-4.123-6.788-4.123zm13.57-13.406s2.209-5.454 5.827-11.11c-3.713 4.958-5.827 11.11-5.827 11.11zm-9.079 8.263s1.418-5.783 4.208-12.047c-2.982 5.598-4.208 12.047-4.208 12.047zm-7.269 5.685s.243-3.911 1.555-8.46c-1.582 4.188-1.555 8.46-1.555 8.46z" fill="#fff"/><path fill-rule="evenodd" clip-rule="evenodd" d="M52.092 27.41s-2.59.822-4.48-.925C45.715 24.73 30.902 11.64 38.477 2.68c8.39-7.846 11.368 3.924 12.647 4.964 1.278 1.04 6.246-10.087 14.642-4.063 9.961 10.692-12.803 23.88-13.674 23.828zm-7.707 9.1s3.232.236 4.708 4.793c.868 2.681.304 17.678-9.026 20.622-9.115 1.697-3.81-8.656-3.888-10.08-.077-1.425-9.277 4.459-10.256-4.288.916-13.046 18.024-11.523 18.462-11.047z" fill="red"/><path fill-rule="evenodd" clip-rule="evenodd" d="M51.264 39.835s1.227-3.589 5.576-3.077c2.873.338 16.459 5.094 16.94 14.984-.622 9.302-8.94 1.035-10.28.675-1.339-.36 1.899 10.301-6.444 8.58-11.871-4.859-6.34-20.885-5.792-21.162zm-6.376-7.688s2.523-1.838 1.124-5.974c-.824-2.433-9.892-13.248-19.258-10.622-8.474 3.439 1.83 8.373 2.584 9.468.754 1.095-10.192 1.477-5.98 8.459 8.238 9.188 21.442-.752 21.53-1.33z" fill="red"/><path fill-rule="evenodd" clip-rule="evenodd" d="M55.213 29.765s-1.634 3.362 1.834 5.987c2.29 1.733 15.334 7.712 22.6 1.096 6.064-6.96-5.67-6.86-6.879-7.526-1.21-.666 8.567-5.932 1.397-10.447-11.889-4.731-19.149 10.32-18.952 10.89z" fill="red"/></svg>