<svg width="83" height="152" fill="none" xmlns="http://www.w3.org/2000/svg"><path fill-rule="evenodd" clip-rule="evenodd" d="M40.683 149.568s7.384-22.58 3.755-34.636C33.442 78.408 8.396 60.008 35.05 0 22.22 44.422 21.894 62.277 50.07 113.357c5.729 10.385-3.754 37.786-3.754 37.786l-5.632-1.575zm7.51-39.36s24.011-7.026 24.403-34.637c4.658 23.73-22.527 37.786-22.527 37.786l-1.877-3.149zm11.263-6.297s-13.32-5.359-5.632-17.319c7.453 7.316 5.632 17.319 5.632 17.319zM83 93.274s-4.644 10.823-15.26 4.71c4.934-5.45 15.26-4.71 15.26-4.71zm-44.194 5.914S.769 89.315.179 58.253c-3.313 32.863 40.504 45.658 40.504 45.658l-1.877-4.723zM22.538 91.89s-10.926-8.34.532-17.945c4.636 8.801-.532 17.945-.532 17.945zM1.173 102.011s3.85-11.962 19.275-7.805c-7.216 7.481-19.275 7.805-19.275 7.805zM22.07 52.392S-2.5 50.008 6.246 28.663c15.305 7.851 15.824 23.73 15.824 23.73zm7.144 16.795s25.759.63 20.962-23.727c-17.3 6.53-20.962 23.727-20.962 23.727zM27.48 33.896s7.735-6.73 12.308-6.32c-3.604-.965-12.08 5.037-12.08 5.037l-.228 1.283z" fill="#52AC62"/></svg>