<svg xmlns="http://www.w3.org/2000/svg" viewBox="0 0 24 24"><path class="st0" d="M12 .1C5.4.1 0 5.4 0 12s5.4 11.9 12 11.9c6.7 0 12-5.3 12-11.9S18.7.1 12 .1zm7.1 15.8c0 1.3-1.1 2.3-2.3 2.3-1.3 0-2.3-1-2.3-2.3H9.7c0 1.3-1 2.3-2.3 2.3-1.3 0-2.3-1-2.3-2.3H3.4V7.4c0-.8.7-1.5 1.6-1.5h11V9h2.3l2.3 3.1V16h-1.5z"/><path class="st0" d="M17.5 15.9c0 .4-.4.8-.8.8s-.8-.3-.8-.8c0-.4.3-.8.8-.8s.8.4.8.8zM8.1 15.9c0 .4-.4.8-.8.8s-.8-.3-.8-.8c0-.4.4-.8.8-.8.5 0 .8.4.8.8zM19.4 12H16v-1.9h1.9zM14.4 7.4v7H9.1c-.4-.5-1-.8-1.7-.8s-1.3.3-1.7.8H5v-7h9.4z"/></svg>