<svg xmlns="http://www.w3.org/2000/svg" width="568.8" height="598.2" viewBox="0 0 1896 1994"><defs><style>.cls-2,.cls-4{fill:#f9fdff;fill-rule:evenodd}.cls-4{fill:#fff200}</style></defs><ellipse cx="946.5" cy="775" rx="841.5" ry="423" fill="#00aeef"/><path class="cls-2" d="M499.416 776.794c60.573 13.831 102.551 56.251 93.761 94.749s-65.02 58.494-125.593 44.663-102.551-56.251-93.761-94.749 65.02-58.494 125.593-44.663zM976.6 921.168c61.983-4.261 114.433 24.221 117.143 63.617s-45.35 74.785-107.337 79.045-114.43-24.22-117.138-63.61 45.343-74.791 107.332-79.052z"/><path id="Ellipse_2_copy" data-name="Ellipse 2 copy" class="cls-2" d="M1463.28 778.541c59.05-19.311 116.87-4.54 129.15 32.993s-25.65 83.614-84.71 102.925-116.87 4.54-129.15-32.993 25.65-83.614 84.71-102.925z"/><path id="Ellipse_2_copy_2" data-name="Ellipse 2 copy 2" d="M1513 651s-488.95 304.6-1098 6c30.76-825 1058.01-735.571 1098-6z" fill="#636363" fill-rule="evenodd"/><path id="Rounded_Rectangle_1" data-name="Rounded Rectangle 1" class="cls-4" d="M420.17 1250.36c11.047 6.45 14.2 19.75 7.044 29.7l-307 427.12c-7.156 9.96-21.912 12.8-32.958 6.35s-14.2-19.75-7.043-29.7l307-427.12c7.155-9.96 21.911-12.8 32.957-6.35zm258.507 81.86c12.65 3.27 19.962 15.17 16.331 26.57l-155.779 489.17c-3.631 11.41-16.83 18-29.481 14.72s-19.963-15.17-16.331-26.57L649.2 1346.94c3.626-11.4 16.826-17.99 29.477-14.72z"/><path id="Rounded_Rectangle_1_copy" data-name="Rounded Rectangle 1 copy" class="cls-4" d="M1495.42 1245.44c-11.03 6.45-14.19 19.75-7.03 29.71l306.79 427.19c7.15 9.96 21.9 12.8 32.94 6.35s14.19-19.75 7.04-29.71l-306.8-427.19c-7.15-9.96-21.9-12.8-32.94-6.35zm-279.09 94.05c-12.64 3.27-19.94 15.17-16.32 26.58l155.68 489.24c3.63 11.41 16.82 18 29.46 14.73s19.95-15.18 16.32-26.58l-155.67-489.25c-3.63-11.4-16.82-18-29.47-14.72zm-242.23 24.65c-13.152-.19-23.989 9.27-24.206 21.14l-9.279 508.9c-.216 11.86 10.27 21.63 23.423 21.82s23.989-9.27 24.206-21.13l9.279-508.91c.217-11.86-10.269-21.63-23.423-21.82z"/></svg>