<svg xmlns="http://www.w3.org/2000/svg" xmlns:xlink="http://www.w3.org/1999/xlink" viewBox="0 0 325.97 328.37"><defs><linearGradient id="linear-gradient" x1="309.62" y1="301.83" x2="295" y2="276.52" gradientUnits="userSpaceOnUse"><stop offset="0" stop-color="#2484c6"/><stop offset="1" stop-color="#fff"/></linearGradient></defs><title>Asset 2user</title><g id="Layer_2" data-name="Layer 2"><g id="handFront"><path d="M268.79,302.27c-.76,4.34,5.62,6.38,5.62,6.38,6.87,2.88,11,3.46,12,3.56a16.26,16.26,0,0,1-8.71,3,6.57,6.57,0,0,1-.77,0,8.53,8.53,0,0,1-1.27-.13,12.59,12.59,0,0,1-1.37-.21h0c-1.66-.32-4.11-1-7.15-1.88h0c-14-4.22-40.54-14.09-58.39-23.55-6.66-3.53-12.12-7-15.28-10.1a16.76,16.76,0,0,1-4.18-3.74,11.36,11.36,0,0,1-2.2-10.05L190.67,252a6.72,6.72,0,0,1,.72-1.48.05.05,0,0,1,0,0,6.81,6.81,0,0,1,1.9-2,6.62,6.62,0,0,1,4.5-1.07l2,.21,2.23.29c1,.14,2.09.31,3.32.52l.45.08.87.15.27.05c.81.14,1.66.31,2.55.49l1,.21,2.11.45,2.23.52.66.16c.94.23,1.9.47,2.89.74l1.55.42c.74.2,1.49.41,2.25.64l1.31.39,2.47.77,1.76.57,1.23.42,1.44.5,1.42.51a156.76,156.76,0,0,1,14.6,6.15l1.46.71c2.89,1.43,5.82,3,8.76,4.7l1.16.68c1.79,1.05,3.57,2.15,5.36,3.32.55.35,1.09.71,1.64,1.08s1.09.73,1.63,1.11c1.9,1.3,3.8,2.68,5.69,4.12l1.1.85c1,.77,2,1.57,3,2.38,9.95,7.08,15.6,13.88,15.84,21.46l-.52-.27-14.81-7.66C269.05,292.57,269.56,297.93,268.79,302.27Z" fill="#d1d3d4" stroke="#231f20" stroke-miterlimit="10"/><path d="M294.5,301.76c-.18.43-.37.85-.58,1.25L292,302c-.24-7.58-5.89-14.38-15.84-21.46-1-.81-2-1.61-3-2.38l-1.1-.85c-1.89-1.44-3.79-2.82-5.69-4.12-.54-.38-1.09-.75-1.63-1.11s-1.09-.73-1.64-1.08c-1.79-1.17-3.57-2.27-5.36-3.32l-1.16-.68-1-.57c-2.61-1.49-5.2-2.86-7.76-4.13l-1.46-.71a156.76,156.76,0,0,0-14.6-6.15L230.4,255l-1.44-.5-1.23-.42-1.76-.57-2.47-.77-1.31-.39c-.76-.23-1.51-.44-2.25-.64l-1.55-.42c-1-.27-1.95-.51-2.89-.74l-.66-.16-2.23-.52-2.11-.45-1-.21-2.55-.49-.27-.05-.87-.15-.45-.08c-1.23-.21-2.34-.38-3.32-.52l-2.23-.29-.26,0-1.74-.18a6.62,6.62,0,0,0-4.5,1.07l.08-.31a7.25,7.25,0,0,1,1.73-2.76l.37-.34a4.85,4.85,0,0,1,.88-.64l.46-.25,0,0c.17-.07.35-.15.53-.21h0l.14,0a7.55,7.55,0,0,1,2.95-.29c4.72.43,32.63,3.58,61.91,21.49a144.53,144.53,0,0,1,16.47,11.7C290.41,284.91,296.15,292.7,294.5,301.76Z" fill="#808285" stroke="#231f20" stroke-miterlimit="10"/><path d="M293.89,302.59a16.21,16.21,0,0,1-2.56,4,14.81,14.81,0,0,1-4.89,5.65c-1-.1-5.16-.68-12-3.56,0,0-6.38-2-5.62-6.38s.26-9.7,7.92-8.17l14.81,7.66.52.27.81-.43A.76.76,0,0,1,293.89,302.59Z" fill="#231f20" stroke="#231f20" stroke-miterlimit="10"/><polygon points="266.58 319.55 263.52 327.04 191.69 313.42 187.6 308.31 266.58 319.55" fill="#231f20" stroke="#231f20" stroke-miterlimit="10"/><polygon points="276.96 315.17 276.79 317.85 263.52 327.04 266.39 319.52 266.58 319.04 274.31 314.83 274.32 314.83 274.41 314.78 276.96 315.17" fill="#231f20" stroke="#231f20" stroke-miterlimit="10"/><path d="M274.31,314.83,266.58,319l-79-10.73.39-7.47,1.3-25.29a16.76,16.76,0,0,0,4.18,3.74c3.16,3.1,8.62,6.57,15.28,10.1,17.85,9.46,44.34,19.33,58.39,23.55h0C270.2,313.86,272.65,314.51,274.31,314.83Z" fill="#939598" stroke="#231f20" stroke-miterlimit="10"/><path d="M187.09,265.5a11.36,11.36,0,0,0,2.2,10.05L188,300.84q-.19-.16-.39-.36C172.62,286.19,174,266.1,174,266.1a44.23,44.23,0,0,1,2.73-18.72l14.64,3.06,0,.05a6.72,6.72,0,0,0-.72,1.48Z" fill="#27aae1" stroke="#231f20" stroke-miterlimit="10"/><path d="M197.45,243.89h0c-.18.06-.36.14-.53.21l0,0-.46.25a6,6,0,0,0-.88.64l-.37.34a7.25,7.25,0,0,0-1.73,2.76l-.08.31a6.81,6.81,0,0,0-1.9,2h-.06l-14.07-2.94a.14.14,0,0,1,0-.27L196.35,242h0a.17.17,0,0,1,.12.07l1,1.68A.13.13,0,0,1,197.45,243.89Z" fill="#1b75bc" stroke="#231f20" stroke-miterlimit="10"/><path d="M262.67,265l-.22.05c-29.28-17.91-57.19-21.06-61.91-21.49a7.55,7.55,0,0,0-2.95.29l-.14,0a.13.13,0,0,0,.05-.19l-1-1.68a.17.17,0,0,0-.12-.07c.94-.32,20.15-6.82,23.89-6.57s13-.51,13-.51l25.54,3.83Z" fill="#939598" stroke="#231f20" stroke-miterlimit="10"/><path d="M197.45,243.89l-1.1-1.93h0a.17.17,0,0,1,.12.07l1,1.68A.13.13,0,0,1,197.45,243.89Z" fill="none" stroke="#231f20" stroke-miterlimit="10"/><polygon points="252.96 245 235.09 245.51 229.98 239.21 229.47 235.12 233.3 234.87 241.56 238.7 252.96 245" fill="#231f20" stroke="#231f20" stroke-miterlimit="10"/><path d="M262.45,265l-2.34-15.79,14.47,12.26s9.38,8.55,17.19,5.95L293,278.53l-7.32,3.23S268.87,267.73,262.45,265Z" fill="#bcbec0" stroke="#231f20" stroke-miterlimit="10"/><path d="M285.47,313.08s4.6.51,4.94,0,27.23-16.68,27.23-16.68,8-8.68-1.87-23L301.64,262.7l-2.38,1.19-.85-.68-3.07,1.36s-1,4.6-3.57,2.89,0,.68,0,.68L293,278.53l-7.32,3.23s13.28,12.43,7.66,22.13Z" fill="#bcbec0" stroke="#231f20" stroke-miterlimit="10"/><path d="M287.14,281.06l16.52-7.72a1.19,1.19,0,0,1,.41-.11c2.19-.16,20.22-.83,13.7,22.71a1.17,1.17,0,0,1-.53.7L295,310.25a1.18,1.18,0,0,1-1.68-1.51c2.48-5.12,4.12-14.4-6.58-25.81A1.18,1.18,0,0,1,287.14,281.06Z" stroke="#231f20" stroke-miterlimit="10" fill="url(#linear-gradient)"/><path d="M305.05,260.65l13.1,10.05s13.16,13.93-.91,25.94c0,0,8.05-9.55-1.15-22.76l-.32-.46L301.64,262.7Z" fill="#a7a9ac" stroke="#231f20" stroke-miterlimit="10"/></g><g id="head"><path d="M295.35,260.53a21.43,21.43,0,0,1-.46,4.43c-.79,2.73-3.2,4.85-11,2.08-3.58-1.54-12.85-7.71-15.32-10.47-16.09-15.45-42.64-24.51-45.19-25.28-10.83-3.25-39.58-6.13-42.39-6.64-8.3-1.51-5.36-13.27-5.36-13.27,5.36-25,6.64-24.9,9.83-31.79,3.5-6.39,10.06-7.55,12.73-7.75a10.56,10.56,0,0,1,1.19,0s63.47,1,77.87,10h0a7.51,7.51,0,0,1,2.29,2C298,210.74,295.35,260.53,295.35,260.53Z" fill="#d1d3d4" stroke="#231f20" stroke-miterlimit="10"/><path d="M305.73,173.16l-28.5,8.6h0c-14.4-9-77.87-10-77.87-10a10.56,10.56,0,0,0-1.19,0A191.32,191.32,0,0,1,225.41,168a283.76,283.76,0,0,1,32.33-.58q4.9.19,10.13.57A305.27,305.27,0,0,1,305.73,173.16Z" fill="#bcbec0" stroke="#231f20" stroke-miterlimit="10"/><path d="M324.62,245.33c-.34,3.24-1.7,14.13-12.08,11.92L295,265.08l-.12-.12a21.43,21.43,0,0,0,.46-4.43s2.68-49.79-15.83-76.73a7.51,7.51,0,0,0-2.29-2l28.5-8.6C308.28,173.67,330,194.3,324.62,245.33Z" fill="#a7a9ac" stroke="#231f20" stroke-miterlimit="10"/><path d="M298.41,235.76l17.1-5.74-.76,25.66-2.3,1.15s-13.92,8.42-13.92,6.51S298.41,235.76,298.41,235.76Z" fill="#414042" stroke="#231f20" stroke-miterlimit="10"/><polygon points="306.7 249.46 312.76 241.63 312.83 249.56 306.86 254.02 306.7 249.46" fill="#efd01b" stroke="#231f20" stroke-miterlimit="10"/><polygon points="223.09 156.23 257.05 157 270.83 154.19 240.45 153.17 223.09 156.23" fill="#be1e2d" stroke="#231f20" stroke-miterlimit="10"/><polygon points="257.05 156.99 256.47 168.43 256.28 172.06 224.9 169.04 226.16 156.74 257.05 156.99" fill="#ed1c24" stroke="#231f20" stroke-miterlimit="10"/><path d="M257.23,168.46l-.76,0,.58-11.44Z" fill="#ef4136" stroke="#231f20" stroke-miterlimit="10"/><path d="M268.28,155.21,267.36,169c-3.48-.25-7.81,3.16-11.08,3l.19-3.63.58-11.44Z" fill="#ef4136" stroke="#231f20" stroke-miterlimit="10"/><polygon points="304.45 250.94 299.02 249.44 298.94 255.95 304.29 254.69 304.45 250.94" fill="#efd01b" stroke="#231f20" stroke-miterlimit="10"/><path d="M183.51,209.85l1.54-7.66a6.93,6.93,0,0,1,6.63-4.09l47.75,3.58S252.19,205,251.94,217s-.51,15.57-.51,15.57a3.51,3.51,0,0,1-3.58,1.53c-2.29-.51-23.49-12.51-44.68-14.81-6.64.51-14.81.51-15.83,0S183.26,217,183.51,209.85Z" fill="#939598"/><path d="M179.94,211.63l1.53-7.66a6.93,6.93,0,0,1,6.64-4.08l47.74,3.57s12.77,3.32,12.51,15.32-.51,15.58-.51,15.58a3.49,3.49,0,0,1-3.57,1.53c-2.3-.51-23.49-12.51-44.68-14.81-6.64.51-14.81.51-15.83,0S179.68,218.78,179.94,211.63Z" fill="#d1d3d4" stroke="#726658" stroke-miterlimit="10" stroke-width="0.25"/><ellipse cx="243.39" cy="163.12" rx="4.47" ry="3.83" fill="#f7941d"/></g><g id="text"><ellipse cx="197.71" cy="138.79" rx="7.55" ry="4.34" transform="translate(-42.91 117.45) rotate(-30)" fill="#d1d3d4"/><ellipse cx="207.55" cy="145.9" rx="4.59" ry="3.09" transform="translate(-46.12 149.26) rotate(-35.86)" fill="#d1d3d4"/><ellipse cx="180.46" cy="128.58" rx="11.85" ry="7.79" transform="translate(-40.11 107.46) rotate(-30)" fill="#d1d3d4"/><path d="M47.82,140.76A27.14,27.14,0,0,1,44,142.47c-10.62,3.79-21.54.42-24.39-7.55a12.32,12.32,0,0,1-.32-7C9.56,123.39,3.05,117.07.89,109.08-2.76,95.6,5,79.3,21.5,64.36a11.84,11.84,0,0,1-2.41-4c-2.85-8,3.45-17.51,14.08-21.31a27.33,27.33,0,0,1,5.51-1.35c.07-11.93,14.2-26,34.56-33.24,23.19-8.3,45.69-4.7,50.24,8a13.42,13.42,0,0,1,.56,2q2.37-1,4.86-1.91c23.19-8.29,45.69-4.7,50.24,8,.15.42.28.84.39,1.27,25.44,3.57,44.12,12.58,47.73,25.92,5.8,21.43-24.75,49.18-68.86,67.79-.33,13-25.7,26.26-58.19,30.09-21.38,2.53-40.71.36-52.39-5" fill="#bcbec0"/><text transform="matrix(0.75, -0.27, 0.34, 0.94, 35.57, 106.44)" font-size="21.02" fill="#00a79d" font-family="KhmerSavuthPenV2, Khmer Savuth Pen V2">foreign contaminant</text></g></g></svg>